<svg class="main-svg" xmlns="http://www.w3.org/2000/svg" xmlns:xlink="http://www.w3.org/1999/xlink" width="700" height="500" style="" viewBox="0 0 700 500"><rect x="0" y="0" width="700" height="500" style="fill: rgb(255, 255, 255); fill-opacity: 1;"/><defs id="defs-89c89d"><g class="clips"><clipPath id="clip89c89dxyplot" class="plotclip"><rect width="133" height="320"/></clipPath><clipPath class="axesclip" id="clip89c89dx"><rect x="487" y="0" width="133" height="500"/></clipPath><clipPath class="axesclip" id="clip89c89dy"><rect x="0" y="100" width="700" height="320"/></clipPath><clipPath class="axesclip" id="clip89c89dxy"><rect x="487" y="100" width="133" height="320"/></clipPath></g><g class="gradients"/><g class="patterns"/></defs><g class="bglayer"><rect class="bg" x="487" y="100" width="133" height="320" style="fill: rgb(255, 255, 255); fill-opacity: 1; stroke-width: 0;"/></g><g class="layer-below"><g class="imagelayer"/><g class="shapelayer"/></g><g class="cartesianlayer"><g class="subplot xy"><g class="layer-subplot"><g class="shapelayer"/><g class="imagelayer"/></g><g class="minor-gridlayer"><g class="x"/><g class="y"/></g><g class="gridlayer"><g class="x"><path class="xgrid crisp" transform="translate(513.63,0)" d="M0,100v320" style="stroke: rgb(255, 255, 255); stroke-opacity: 1; stroke-width: 1px;"/><path class="xgrid crisp" transform="translate(540.25,0)" d="M0,100v320" style="stroke: rgb(255, 255, 255); stroke-opacity: 1; stroke-width: 1px;"/><path class="xgrid crisp" transform="translate(566.88,0)" d="M0,100v320" style="stroke: rgb(255, 255, 255); stroke-opacity: 1; stroke-width: 1px;"/><path class="xgrid crisp" transform="translate(593.51,0)" d="M0,100v320" style="stroke: rgb(255, 255, 255); stroke-opacity: 1; stroke-width: 1px;"/></g><g class="y"><path class="ygrid crisp" transform="translate(0,371.81)" d="M487,0h133" style="stroke: rgb(255, 255, 255); stroke-opacity: 1; stroke-width: 1px;"/><path class="ygrid crisp" transform="translate(0,331.58000000000004)" d="M487,0h133" style="stroke: rgb(255, 255, 255); stroke-opacity: 1; stroke-width: 1px;"/><path class="ygrid crisp" transform="translate(0,291.34000000000003)" d="M487,0h133" style="stroke: rgb(255, 255, 255); stroke-opacity: 1; stroke-width: 1px;"/><path class="ygrid crisp" transform="translate(0,251.11)" d="M487,0h133" style="stroke: rgb(255, 255, 255); stroke-opacity: 1; stroke-width: 1px;"/><path class="ygrid crisp" transform="translate(0,210.87)" d="M487,0h133" style="stroke: rgb(255, 255, 255); stroke-opacity: 1; stroke-width: 1px;"/><path class="ygrid crisp" transform="translate(0,170.64)" d="M487,0h133" style="stroke: rgb(255, 255, 255); stroke-opacity: 1; stroke-width: 1px;"/><path class="ygrid crisp" transform="translate(0,130.4)" d="M487,0h133" style="stroke: rgb(255, 255, 255); stroke-opacity: 1; stroke-width: 1px;"/></g></g><g class="zerolinelayer"><path class="xzl zl crisp" transform="translate(487,0)" d="M0,100v320" style="stroke: rgb(255, 255, 255); stroke-opacity: 1; stroke-width: 2px;"/><path class="yzl zl crisp" transform="translate(0,412.05)" d="M487,0h133" style="stroke: rgb(255, 255, 255); stroke-opacity: 1; stroke-width: 2px;"/></g><path class="xlines-below"/><path class="ylines-below"/><g class="overlines-below"/><g class="xaxislayer-below"/><g class="yaxislayer-below"/><g class="overaxes-below"/><g class="plot" transform="translate(487,100)" clip-path="url(#clip89c89dxyplot)"><g class="scatterlayer mlayer"><g class="trace scatter tracebbb263" style="stroke-miterlimit: 2; opacity: 1;"><g class="fills"/><g class="errorbars"/><g class="lines"><path class="js-line" d="M0,279.86L0.93,201.4L1.07,211.22L1.2,207.2L2.26,177.42L2.4,181.77L3.06,189.49L3.2,174.2L3.33,180.56L3.86,177.42L3.99,168.41L4.39,176.46L4.66,176.38L4.79,163.42L5.19,181.2L5.59,166.56L5.72,153.52L5.86,165.67L6.39,150.54L6.52,164.55L6.66,164.06L6.79,168.09L7.19,159.07L7.32,154.73L7.46,155.45L7.59,167.68L7.85,148.77L8.39,160.36L8.52,164.06L8.79,148.21L9.05,166.56L9.19,157.95L9.32,162.94L9.59,151.75L10.12,154.73L10.25,153.04L10.38,163.1L10.78,144.75L10.92,154.25L11.05,153.28L11.18,154.65L11.32,142.26L11.45,141.93L11.58,147.89L11.72,154.09L11.85,145.56L12.25,152.07L12.38,145.07L12.65,151.75L12.78,151.27L12.91,136.46L13.58,155.94L13.71,145.07L13.85,144.83L13.98,141.13L14.25,152.32L14.38,151.19L15.18,140.81L15.31,144.99L15.84,134.69L15.98,147.08L16.24,137.43L16.38,147.81L17.17,125.52L17.31,137.99L17.44,138.72L17.71,136.38L17.97,149.9L18.11,134.37L18.64,147.89L18.77,134.13L19.57,143.14L19.7,142.66L20.37,142.74L20.77,123.02L20.9,137.11L21.3,135.18L21.7,141.69L21.83,136.3L21.97,136.22L22.1,143.62L23.03,128.17L23.17,139.76L23.43,125.84L23.7,141.05L23.83,130.19L23.96,139.12L24.23,137.59L24.36,142.34L25.03,122.06L25.16,133.08L25.3,124.47L25.83,124.15L25.96,140.49L26.09,133.16L26.23,132.12L26.49,146.44L26.63,131.23L26.89,138.15L27.03,133.65L27.16,143.14L27.43,133.81L27.56,116.43L28.49,139.76L28.62,131.96L29.16,129.22L29.42,144.03L29.56,135.01L29.69,124.07L30.35,126.65L30.49,141.29L31.42,117.23L31.55,123.27L31.69,122.06L31.82,122.38L31.95,137.83L32.09,120.61L32.62,120.93L32.75,132.6L33.02,133.89L33.15,132.12L33.28,124.88L33.82,122.38L34.08,131.72L34.22,122.62L34.35,131.8L34.61,117.15L35.01,128.34L35.15,116.59L35.55,133.89L35.81,121.33L35.95,111.44L36.35,132.2L36.74,124.39L36.88,119.97L37.01,114.82L37.14,125.92L37.54,115.7L37.68,126.48L38.21,128.58L38.34,120.61L38.48,128.9L39.01,119.56L39.27,126.16L39.41,134.13L39.67,116.43L40.07,123.75L40.21,127.69L40.61,113.37L40.87,129.3L41.01,119.24L41.14,123.99L41.27,128.98L41.4,118.84L41.8,123.35L41.94,112.48L42.07,127.45L42.74,121.41L42.87,119.32L43,115.3L43.27,127.45L43.4,123.27L43.53,123.43L43.8,122.62L43.93,124.79L44.2,113.77L44.6,115.46L44.73,124.39L45,126.16L45.13,105.96L45.4,111.92L45.53,123.75L46.2,117.15L46.33,118.44L46.46,119.24L47.4,125.04L47.53,106.37L48.46,125.04L48.59,120.77L48.86,123.67L48.99,117.07L49.13,118.68L49.26,125.28L49.53,127.77L50.06,106.13L50.19,117.39L50.32,114.33L50.46,122.14L50.59,119.4L50.72,129.54L51.79,106.85L51.92,120.29L52.06,129.38L52.32,113.77L52.59,117.31L52.72,115.3L52.85,106.93L53.25,120.93L53.39,120.85L53.65,130.27L53.92,102.18L54.05,111.68L54.19,118.2L54.32,109.91L54.72,124.07L54.85,122.7L54.98,120.05L55.25,122.54L55.52,110.63L55.65,117.95L55.78,123.51L55.92,122.06L56.05,111.03L56.18,124.15L56.71,113.77L56.85,115.06L57.11,112.48L57.51,123.43L57.65,122.62L57.78,116.02L58.05,129.86L58.18,109.67L58.31,123.99L58.45,113.77L58.71,118.04L58.84,107.57L58.98,115.46L59.11,111.03L59.78,124.07L59.91,120.77L60.04,120.93L60.44,113.93L60.84,114.9L60.97,115.3L61.11,124.55L61.37,111.92L61.64,121.9L61.77,104.36L62.57,121.82L62.71,100.49L63.5,123.1L63.64,118.76L64.04,104.92L64.17,119.81L64.57,104.6L64.7,117.31L64.97,104.19L65.37,114.25L65.5,115.54L65.63,118.28L66.03,111.44L66.17,113.77L66.3,115.54L66.43,108.22L66.57,103.63L67.23,119.64L67.37,114.58L67.5,112.8L67.76,121.01L68.16,106.13L68.3,122.22L68.43,108.46L68.83,123.02L69.1,111.44L69.23,114.66L69.36,118.36L69.5,111.11L69.63,111.68L69.76,107.49L70.29,102.91L70.69,114.98L70.83,106.37L71.23,117.55L71.63,112.72L71.76,110.31L71.89,107.57L72.29,111.6L72.42,118.52L72.82,100.81L72.96,119.16L73.22,110.15L73.36,112.24L73.49,104.27L73.89,117.63L74.02,111.6L74.16,117.31L74.42,101.62L74.55,119.73L74.95,109.02L75.09,108.3L75.49,117.39L75.75,111.84L75.89,110.63L76.02,109.51L76.15,99.69L76.29,119L76.82,110.87L76.95,105.24L77.08,125.12L77.62,103.87L77.75,117.39L77.88,104.92L78.02,107.09L78.15,104.68L78.28,99.45L78.55,111.6L78.95,108.62L79.08,102.83L79.21,102.02L79.35,111.44L79.61,101.78L80.01,108.22L80.15,120.77L80.28,98.8L80.81,103.39L80.94,115.3L81.21,97.03L81.74,108.38L81.88,111.44L82.14,100.81L82.54,105.56L82.68,104.76L82.81,103.39L82.94,112.64L83.61,99.61L83.87,104.36L84.01,105.64L84.14,102.67L84.54,108.06L84.67,109.18L84.81,98.64L85.07,114.66L85.34,106.21L85.47,107.01L85.74,114.01L85.87,111.28L86,101.78L86.54,118.2L86.67,105.72L86.8,98.32L87.07,109.75L87.2,97.68L88,110.95L88.13,109.1L88.4,101.86L88.53,95.1L89.2,112.64L89.33,104.36L89.47,110.63L89.86,112.48L90.26,101.14L90.4,116.02L91.2,97.6L91.33,106.29L91.46,100.09L91.6,111.44L91.99,100.49L92.13,105.64L92.53,108.62L92.79,94.46L92.93,106.69L93.33,97.27L93.46,99.12L93.59,113.05L94.26,115.38L94.39,98.16L94.52,111.36L95.06,96.15L95.32,100.65L95.46,110.87L95.59,101.62L96.12,103.63L96.26,109.26L96.92,98.56L97.05,104.27L97.19,97.76L97.45,110.63L97.85,91.88L97.99,111.03L98.39,114.09L98.52,98.08L98.65,110.47L98.78,107.82L99.18,97.6L99.45,112.56L99.58,106.77L99.72,85.69L100.25,107.09L100.38,99.21L100.52,92.12L100.65,110.79L101.31,109.1L101.45,106.05L101.85,92.53L101.98,94.7L102.11,112.64L102.78,98.16L102.91,101.14L103.05,104.92L103.31,111.76L103.71,94.62L103.84,95.5L103.98,104.68L104.11,93.25L104.64,108.62L104.78,101.3L105.18,96.55L105.31,108.62L105.44,98.96L105.57,97.27L105.71,102.26L105.84,115.94L106.51,94.62L106.64,104.92L106.77,92.85L106.91,106.13L107.57,100.9L107.7,97.76L108.1,96.23L108.37,110.55L108.5,102.75L108.64,102.83L108.77,93.97L109.44,97.76L109.57,105.48L109.97,106.37L110.5,85.69L110.63,102.5L110.77,103.39L110.9,96.23L111.17,94.86L111.3,105.96L111.57,102.26L111.7,99.37L111.96,101.38L112.1,106.69L112.23,93.89L112.63,107.98L112.9,97.92L113.03,105.72L113.3,95.26L113.7,102.26L113.83,106.29L114.23,92.77L114.36,106.29L114.89,99.45L115.16,103.23L115.29,105L115.69,105.48L115.96,90.92L116.09,97.84L116.23,106.77L116.49,93.01L117.02,98.16L117.16,107.65L117.29,108.46L117.42,93.89L117.56,110.47L118.09,96.23L118.22,98.32L118.36,93.25L118.49,114.01L118.89,97.11L119.02,107.33L119.95,95.1L120.09,103.95L120.49,111.76L120.88,91.56L121.02,99.29L121.15,90.43L121.68,104.6L121.82,100.09L122.22,90.43L122.62,91.4L122.75,99.85L123.02,108.62L123.41,98.48L123.55,93.49L123.81,106.69L124.35,101.78L124.48,96.15L125.01,111.76L125.28,100.9L125.41,99.37L125.54,102.83L125.68,92.53L125.81,100.81L125.94,89.23L126.08,105L126.74,96.15L126.88,100.81L127.14,95.1L127.41,105.4L127.54,99.04L127.81,98.08L127.94,90.84L128.47,109.83L128.61,90.51L128.74,100.09L128.87,99.61L129.01,105.56L129.14,95.18L129.41,97.52L129.54,95.02L129.8,87.38L129.94,99.29L130.07,111.92L131,89.79L131.14,91.32L131.67,88.66L131.93,104.19L132.07,95.1L132.2,93.01L132.33,106.69L132.6,107.33L132.73,95.66L133,100.81" style="vector-effect: non-scaling-stroke; fill: none; stroke: rgb(255, 0, 0); stroke-opacity: 1; stroke-width: 2px; opacity: 1;"/></g><g class="points"/><g class="text"/></g><g class="trace scatter trace6db291" style="stroke-miterlimit: 2; opacity: 1;"><g class="fills"/><g class="errorbars"/><g class="lines"><path class="js-line" d="M0,304L1.07,190.22L1.2,185.15L1.46,188.45L2,172.75L2.13,175.81L3.33,150.54L3.46,157.47L4.39,141.53L4.53,136.06L4.93,143.87L5.33,139.6L5.46,131.88L5.59,139.6L5.99,128.58L6.26,135.26L6.39,124.31L6.92,136.87L7.19,128.74L7.32,123.67L7.72,121.9L7.85,123.83L7.99,126.32L8.52,115.38L8.65,126.48L8.79,117.79L8.92,121.9L9.32,122.78L9.72,111.84L9.85,113.05L9.98,114.33L10.38,109.34L10.52,118.6L10.65,117.95L10.78,111.11L10.92,106.53L11.05,116.83L11.32,107.17L11.45,113.93L11.85,104.6L12.25,108.06L12.38,107.17L12.51,107.74L12.65,102.91L12.78,109.67L13.31,102.42L13.45,100.25L14.11,105.72L14.25,99.69L14.38,101.22L14.64,101.14L14.78,96.23L14.91,101.86L15.58,98.88L15.71,98.48L15.98,105.56L16.24,92.77L16.38,98.4L16.51,89.55L17.31,100.17L17.44,94.3L17.71,95.18L17.84,88.42L17.97,99.21L18.9,89.31L19.04,87.38L19.17,91.24L19.57,86.57L19.7,90.6L19.84,88.82L20.1,93.81L20.24,86.17L20.37,85.77L20.5,91.72L20.9,95.58L21.04,90.51L21.17,93.97L21.3,90.51L21.97,92.61L22.1,84.08L22.23,83.51L23.17,89.39L23.3,84.16L23.43,86.57L23.56,80.62L23.83,83.19L23.96,77.48L24.36,84.96L24.76,79.89L24.9,82.07L25.16,80.86L25.3,87.05L25.69,86.97L25.83,79.25L25.96,79.73L26.09,79.49L26.23,77.08L26.63,84.08L26.76,76.43L27.03,78.28L27.16,77.72L27.29,76.92L27.43,78.85L27.69,77.4L27.82,83.76L28.49,72.81L28.62,74.9L28.76,73.21L28.89,67.66L29.02,77.4L29.42,76.03L29.56,73.86L29.69,81.66L29.95,70.4L30.22,71.93L30.35,74.58L30.62,78.04L31.15,70.16L31.29,76.75L31.42,69.19L32.09,72.25L32.22,70.48L32.35,68.14L32.75,73.94L32.88,70.64L33.02,73.46L33.42,73.86L33.82,69.59L33.95,75.31L34.22,73.54L34.35,66.37L34.48,77.56L34.61,66.29L35.15,76.19L35.28,70.32L35.41,68.87L35.68,72.81L35.81,74.34L37.01,61.55L37.14,65.33L37.28,72.01L37.41,63.72L37.94,67.98L38.08,66.13L38.34,60.34L38.74,74.26L38.87,68.39L39.01,68.22L39.54,59.45L39.67,71.85L39.94,67.34L40.07,63.32L40.61,70.56L40.74,63.07L40.87,65.81L41.01,66.05L41.4,67.02L41.54,58.65L41.67,61.06L41.8,64.12L42.07,58.57L42.34,69.03L42.6,67.58L42.74,63.56L42.87,57.92L43.27,67.34L43.4,62.59L43.53,62.27L43.8,59.69L44.2,67.42L44.33,61.79L44.6,62.27L45.13,55.51L45.27,59.45L45.4,59.21L45.53,61.63L45.66,56.96L45.93,64.44L46.2,61.38L46.33,61.63L46.6,55.27L46.73,65.41L46.86,57.52L47,64.04L47.26,65.49L47.4,54.95L47.79,54.79L47.93,60.98L48.06,53.82L48.46,62.59L48.86,62.03L48.99,56.96L49.13,61.38L49.66,55.03L49.79,59.29L49.92,60.74L50.19,57.28L50.32,52.37L51.12,63.88L51.26,59.53L51.39,57.6L51.66,60.1L51.79,50.52L52.19,54.38L52.32,57.28L52.72,57.68L52.85,50.6L52.99,54.3L53.12,63.4L53.92,54.06L54.05,58.33L54.32,47.22L54.85,51.89L54.98,58.01L55.38,58.25L55.65,53.02L55.78,54.38L55.92,54.06L56.32,52.69L56.71,56.56L56.85,55.03L57.25,44.57L57.38,56.88L57.65,52.61L57.78,53.1L58.18,51.17L58.31,53.1L58.45,60.1L58.84,50.28L59.11,52.05L59.24,55.75L59.51,57.68L59.91,49.39L60.04,54.79L60.18,56.32L60.31,53.66L60.44,48.35L60.71,51.97L60.84,49.8L60.97,48.43L61.11,48.59L61.24,53.58L61.37,47.06L61.64,53.66L62.04,49.88L62.17,46.58L62.44,56.72L62.84,50.2L62.97,45.93L63.11,54.3L63.77,50.2L63.9,55.67L64.57,43.04L64.7,50.04L64.84,48.91L64.97,45.61L65.1,52.61L65.5,47.54L65.63,50.2L65.9,45.37L66.17,49.48L66.3,56.48L66.97,41.19L67.1,48.35L67.23,49.39L67.76,52.85L67.9,42.15L68.03,52.05L68.56,53.02L68.96,41.99L69.1,48.35L69.36,44.73L69.5,52.13L70.43,40.14L70.56,47.46L71.09,39.5L71.36,43.12L71.49,42.47L71.63,50.68L72.16,39.9L72.29,41.83L72.42,40.38L72.56,49.88L72.96,36.52L73.49,37.16L73.62,42.47L74.16,39.26L74.55,48.51L74.69,41.27L74.82,41.59L74.95,46.74L75.09,38.61L75.49,47.38L75.62,44.16L75.75,47.79L76.15,42.72L76.42,43.92L76.55,50.04L76.68,35.47L77.35,41.75L77.48,43.2L77.62,41.91L77.75,46.82L77.88,44.57L78.02,46.26L78.55,36.52L78.68,38.61L78.81,45.29L78.95,38.05L79.21,46.42L79.61,40.78L79.75,39.01L79.88,38.53L80.01,44.57L80.28,38.61L80.41,46.34L80.81,41.99L80.94,42.07L81.34,38.13L81.48,43.6L82.01,32.66L82.28,37.89L82.41,37.97L82.54,34.67L82.81,39.5L82.94,39.09L83.08,41.51L83.34,36.04L83.47,45.69L83.74,41.43L83.87,36.2L84.01,32.09L84.14,38.69L84.41,37.73L84.54,41.27L85.07,38.29L85.21,42.55L85.87,35.55L86,42.23L86.27,42.31L86.8,36.84L86.94,39.66L87.34,42.88L87.6,32.98L87.73,34.11L87.87,42.64L88.13,28.88L88.67,31.77L88.8,33.54L89.07,36.68L89.33,33.94L89.47,31.69L89.73,40.54L90.26,37.97L90.4,36.36L90.93,37.16L91.06,39.42L91.33,35.88L91.46,31.29L91.6,38.45L92.26,38.21L92.39,35.55L92.53,31.37L93.06,37.49L93.19,33.94L93.33,30.48L93.73,41.51L94.13,36.84L94.26,36.6L94.92,28.55L95.06,33.62L95.19,37L95.72,40.87L95.86,31.45L95.99,32.74L96.12,33.94L96.26,27.02L96.39,39.74L96.79,34.19L96.92,38.53L97.99,30.89L98.12,36.36L98.78,30.56L98.92,36.6L99.05,40.87L99.32,32.17L99.58,34.91L99.72,35.31L99.98,30.32L100.52,31.13L100.65,33.14L100.78,33.06L100.91,35.47L101.45,27.75L101.58,31.21L101.71,37.24L102.78,27.27L102.91,30.73L103.31,39.34L103.44,29.2L103.98,28.39L104.24,35.39L104.38,30.89L104.51,31.61L104.64,23.48L104.91,34.03L105.31,26.7L105.44,24.77L105.84,33.86L106.11,24.45L106.24,29.12L106.37,29.28L106.51,24.29L106.64,32.82L106.91,30.4L107.04,34.99L107.17,28.31L107.7,29.76L107.84,32.5L108.24,34.11L108.64,25.98L108.77,35.8L109.57,23.16L109.7,30.81L109.83,24.45L110.5,25.9L110.63,28.79L110.77,20.02L110.9,30.65L111.43,24.61L111.57,25.74L111.83,25.5L112.1,32.66L112.23,38.77L112.76,21.23L113.03,33.7L113.16,31.37L113.7,34.27L114.1,22.04L114.23,28.47L114.49,21.15L115.03,25.25L115.16,24.69L115.29,24.45L115.43,25.17L115.56,26.46L115.83,29.28L116.09,21.55L116.23,29.04L116.36,29.12L116.49,33.78L117.16,23.56L117.29,27.1L117.42,25.09L117.56,18.9L117.82,32.42L118.09,27.27L118.22,23.4L118.75,20.59L119.02,27.99L119.15,24.21L119.29,18.25L119.55,28.63L119.82,26.7L119.95,24.37L120.22,31.37L120.49,30.97L120.62,21.39L120.88,28.39L121.02,18.98L121.55,26.3L121.82,24.05L121.95,22.92L122.48,29.04L122.62,24.13L122.75,22.92L122.88,19.06L123.15,24.45L123.28,24.37L123.41,27.75L124.08,16L124.21,27.02L124.75,34.19L125.01,18.33L125.15,18.66L125.28,20.18L125.54,30L125.94,24.85L126.08,19.62L126.48,30.89L126.61,21.71L127.01,20.67L127.28,27.91L127.67,26.7L127.81,19.86L128.21,26.94L128.47,24.85L128.61,20.59L128.74,26.78L129.01,18.09L129.27,25.25L129.41,19.46L129.67,28.23L130.07,19.94L130.2,22.36L130.47,20.51L130.74,26.86L131,25.58L131.14,25.82L131.27,25.74L131.4,23L131.54,21.87L131.67,21.95L131.8,27.19L132.87,16.8L133,23.48" style="vector-effect: non-scaling-stroke; fill: none; stroke: rgb(128, 0, 128); stroke-opacity: 1; stroke-width: 2px; opacity: 1;"/></g><g class="points"/><g class="text"/></g><g class="trace scatter trace4b2d61" style="stroke-miterlimit: 2; opacity: 1;"><g class="fills"/><g class="errorbars"/><g class="lines"><path class="js-line" d="M0,279.86L1.07,229.97L1.2,225.14L1.33,200.36L1.86,216.13L2,215.64L2.53,199.07L2.93,204.46L3.06,203.98L3.33,206.71L3.73,201.72L3.86,204.38L4.79,196.57L4.93,199.87L5.86,192.47L5.99,195.53L6.12,191.02L6.26,197.94L6.66,193.76L6.79,195.12L7.19,190.3L7.32,195.04L7.46,197.14L7.85,187.4L8.25,194.08L8.39,194.32L8.52,188.2L9.19,189.89L9.32,191.75L9.72,185.71L9.85,191.58L10.78,182.97L10.92,184.74L11.05,187.64L11.85,180.16L11.98,180.24L12.12,179.35L12.25,181.61L12.38,178.95L12.51,180.32L12.65,174.52L13.05,173L13.31,181.93L13.45,177.66L13.58,178.87L13.71,178.95L13.85,181.04L14.78,174.2L14.91,174.36L15.04,169.54L15.31,181.36L15.58,175.57L15.71,175.65L15.84,176.46L16.11,174.36L16.24,173.48L16.51,178.55L16.64,172.03L17.04,177.5L17.17,174.44L17.31,178.31L17.44,173.24L17.84,175.97L17.97,175.17L18.11,175.97L18.24,171.87L18.37,172.43L18.51,177.34L18.77,172.11L18.9,178.55L19.04,176.21L19.17,177.98L19.3,177.1L19.44,170.66L19.97,170.02L20.1,174.77L20.24,170.34L20.9,175.41L21.17,173.8L21.3,172.75L21.57,171.23L21.7,173L21.83,166.16L21.97,166.48L22.1,170.1L22.37,172.51L22.5,171.79L22.63,165.75L22.9,177.1L23.03,174.77L23.17,166.24L23.3,170.74L23.83,165.83L23.96,166.96L24.1,173.88L24.36,165.75L24.63,169.21L24.76,167.6L25.03,173L25.3,164.47L25.43,167.6L25.56,173.32L26.23,165.27L26.36,172.35L26.76,162.62L26.89,171.06L27.03,177.26L27.16,165.91L27.69,171.47L27.82,174.85L28.62,166.48L28.76,171.15L28.89,165.43L29.16,172.35L29.42,168.97L29.56,172.11L29.82,164.22L30.09,167.68L30.22,172.59L30.62,166.4L30.75,173.88L30.89,167.36L31.02,171.31L31.29,172.11L32.09,167.12L32.22,170.74L32.35,170.58L32.48,164.22L32.62,174.36L33.15,169.21L33.28,164.22L33.82,169.86L34.08,168.01L34.22,166.88L34.61,169.21L34.88,166.4L35.01,168.57L35.15,166.64L35.41,162.86L35.55,169.05L35.95,166.24L36.08,161.17L36.35,173.56L36.88,169.94L37.01,166.32L37.41,164.71L37.54,168.81L37.68,160.76L38.21,167.44L38.48,165.19L38.61,164.71L38.74,163.9L38.87,167.44L39.01,167.36L39.27,169.46L39.41,159.56L39.67,168.81L39.81,168.41L40.07,169.7L40.21,165.27L40.47,160.84L40.61,166.8L40.74,163.26L40.87,168.01L41.4,164.87L41.54,167.52L41.8,168.09L42.2,161.57L42.34,165.59L42.47,165.83L43,168.17L43.14,161.25L43.27,168.97L43.67,158.67L44.2,162.62L44.33,166.8L44.87,159.16L45,168.17L45.13,164.63L45.27,160.28L45.4,165.19L45.66,161.81L45.8,168.01L45.93,160.93L46.6,162.37L46.73,163.1L46.86,163.42L47,166.16L47.13,159.32L47.26,166.96L47.66,164.71L47.79,164.71L48.06,155.29L48.33,160.84L48.46,163.82L48.99,159.16L49.26,161.25L49.39,164.39L49.92,166.32L50.06,163.66L50.19,161.81L50.46,163.74L50.59,167.12L50.99,160.2L51.12,162.45L51.26,166.16L51.79,158.11L52.06,165.03L52.19,166.8L52.32,166.72L52.45,159.56L52.59,158.91L52.72,163.9L52.99,166.24L53.12,157.47L53.39,161.89L53.52,162.86L53.65,164.47L53.79,163.26L53.92,156.98L54.05,166.4L54.72,162.78L54.85,165.67L55.38,166.24L55.52,155.86L55.65,168.01L56.45,160.04L56.58,168.73L57.25,158.91L57.38,165.51L57.51,165.27L57.65,162.7L57.78,162.86L57.91,159.07L58.18,165.35L58.58,158.91L58.71,161.73L58.84,161.65L59.38,169.29L59.51,161.25L59.64,163.5L60.04,162.86L60.44,165.91L60.58,158.91L61.37,167.6L61.51,159.48L61.64,165.27L62.31,162.53L62.44,162.86L62.84,165.11L62.97,157.87L63.24,159.96L63.37,164.39L63.9,164.79L64.04,158.19L64.17,159.64L64.3,158.75L65.1,165.35L65.24,163.9L66.03,155.61L66.17,166.4L66.83,158.91L67.23,161.41L67.37,165.67L67.5,157.22L68.03,165.91L68.16,162.62L68.3,159.16L68.96,158.83L69.1,165.75L69.23,163.98L69.76,158.67L70.03,161.81L70.16,162.29L70.29,160.68L70.56,162.62L70.83,160.93L70.96,164.55L71.23,165.27L71.76,156.34L71.89,164.39L72.16,155.86L72.42,159.48L72.56,163.9L73.36,156.9L73.49,157.71L73.76,156.82L74.42,165.19L74.55,158.59L74.69,164.95L75.09,156.66L75.22,158.83L75.35,159.24L75.49,163.58L75.75,156.02L76.02,158.83L76.15,159.48L76.29,163.42L76.42,155.45L76.82,159.8L76.95,155.53L77.08,156.34L77.22,164.14L77.75,156.82L77.88,158.03L78.02,162.7L78.42,153.92L78.81,157.95L78.95,159.07L79.08,159.56L79.21,153.76L79.75,164.22L80.15,163.58L80.28,161.25L80.41,159.96L80.55,165.35L80.81,162.21L80.94,162.86L81.21,155.78L81.34,162.62L82.01,162.78L82.14,157.06L82.28,160.93L82.54,156.18L82.81,162.37L82.94,157.71L83.08,163.82L83.34,164.79L83.87,153.36L84.01,159.64L84.27,163.9L84.41,159.32L84.67,156.98L85.21,164.71L85.34,157.63L85.47,155.69L85.87,159.64L86,160.68L86.14,160.76L86.27,160.04L86.4,154.33L86.8,149.74L86.94,161.01L87.34,159.8L87.47,159.32L87.87,152.88L88.13,157.79L88.27,160.36L88.4,160.44L88.53,152.48L88.67,157.79L89.33,156.42L89.47,156.5L89.6,151.75L89.73,157.63L90.13,153.12L90.26,157.87L90.93,159.4L91.06,150.46L91.2,152.32L91.33,154.41L91.6,154.89L91.73,152.8L91.86,158.35L92.93,148.85L93.06,157.3L93.46,149.98L93.86,152.72L93.99,152.15L94.26,158.75L94.39,154.25L94.52,152.96L94.79,152.48L94.92,154.41L95.19,154.65L95.32,152.56L95.59,153.28L95.72,145.72L95.86,156.18L96.52,151.91L96.65,155.21L96.79,155.29L96.92,154.57L97.05,149.66L97.19,156.18L97.32,147.57L97.85,155.94L97.99,151.99L98.65,147.57L98.78,150.95L98.92,146.44L99.32,157.55L99.58,149.1L99.72,151.67L99.85,141.93L100.38,153.04L100.52,150.54L100.65,150.38L100.78,152.07L101.58,149.1L101.71,152.64L102.25,154.01L102.65,143.62L102.78,145.48L103.31,153.52L103.44,150.54L103.58,146.52L104.11,152.32L104.38,150.3L104.51,150.38L104.64,152.15L104.78,151.83L104.91,144.51L105.57,154.25L105.71,148.85L105.84,150.46L105.97,150.3L106.11,153.2L106.37,149.58L106.64,153.36L106.77,150.54L106.91,156.02L107.04,147.81L107.7,149.58L107.84,145.39L108.1,154.73L108.24,146.28L108.37,146.04L109.17,154.01L109.3,152.32L109.44,152.64L109.7,155.69L110.1,148.05L110.23,148.45L110.37,149.42L110.63,153.84L111.17,146.76L111.3,156.1L111.57,148.29L112.1,150.87L112.23,151.59L112.63,155.37L113.03,146.52L113.16,149.58L113.3,150.38L113.43,145.56L113.7,156.58L114.1,149.82L114.23,147.57L114.49,147.08L114.63,152.96L114.76,151.27L114.89,142.5L115.56,156.34L115.69,144.03L116.36,154.33L116.49,150.06L116.62,150.71L116.89,154.41L117.02,149.1L117.16,144.35L117.69,152.8L117.96,150.63L118.09,149.34L118.36,146.2L118.75,153.84L118.89,147.73L119.15,146.6L119.29,153.68L119.55,151.03L119.69,148.94L119.82,144.91L120.09,152.64L120.35,150.71L120.49,150.79L120.88,151.83L121.02,146.2L121.15,153.36L121.95,146.44L122.08,150.95L122.22,145.64L122.62,151.03L122.75,150.87L122.88,153.92L123.41,155.13L123.81,146.12L123.95,148.29L124.21,147.33L124.75,153.12L124.88,148.85L125.15,153.92L125.28,151.67L125.41,150.63L125.54,145.8L126.08,152.48L126.21,152.07L126.61,153.2L126.88,146.6L127.01,153.12L127.54,146.68L127.81,149.98L127.94,149.66L128.21,151.27L128.34,149.58L128.47,147.65L128.87,153.92L129.14,147.89L129.27,145.88L129.41,152.8L129.94,151.11L130.07,148.13L130.74,143.38L130.87,147.97L131.14,147.89L131.27,149.98L131.8,143.54L131.93,144.51L132.07,151.59L132.6,143.06L132.87,148.94L133,151.19" style="vector-effect: non-scaling-stroke; fill: none; stroke: rgb(0, 128, 0); stroke-opacity: 1; stroke-width: 2px; opacity: 1;"/></g><g class="points"/><g class="text"/></g><g class="trace scatter tracee88ca0" style="stroke-miterlimit: 2; opacity: 1;"><g class="fills"/><g class="errorbars"/><g class="lines"><path class="js-line" d="M0,279.86L1.07,229.97L1.2,225.14L1.46,221.12L1.6,219.19L2.53,207.92L2.66,184.58L2.8,208.4L3.46,203.57L3.59,202.29L5.06,188.12L5.19,189.81L5.33,189.89L5.72,189.01L6.52,195.04L6.66,191.91L6.79,194L7.32,193.6L7.46,192.31L8.52,188.37L8.65,188.04L8.92,188.45L9.72,181.53L9.85,183.86L10.12,182.81L10.25,180.8L10.65,187.88L10.92,184.26L11.05,180.08L11.72,187.16L12.12,184.91L12.25,184.91L12.78,187L13.18,179.59L13.31,186.19L13.58,187.48L14.11,178.23L14.25,182.09L14.51,180.88L14.64,184.1L15.04,181.69L15.18,182.25L15.84,179.43L16.11,181.04L16.24,181.77L16.51,177.42L16.77,177.5L16.91,182.97L17.57,178.23L17.71,180.4L17.84,177.98L17.97,175.41L18.11,180.16L18.51,177.18L18.64,179.59L18.77,179.76L18.9,178.31L19.3,179.67L19.57,174.04L19.7,179.51L19.97,176.54L20.1,179.67L20.37,178.23L20.5,181.36L20.77,175.17L21.3,175.33L21.43,175.97L21.57,179.67L22.1,178.31L22.23,177.1L22.37,178.87L22.5,173.72L22.63,178.15L22.77,173.96L23.17,173.64L23.56,179.03L23.7,176.46L24.1,173.4L24.23,177.42L24.5,175.57L24.63,174.69L25.16,178.71L25.3,176.13L25.43,174.28L25.83,173.08L26.23,176.86L26.36,177.18L26.63,173.64L26.89,180.4L27.03,177.02L27.16,177.9L27.69,173.08L28.09,173.64L28.22,175.17L28.49,174.93L28.62,177.18L28.76,175.41L28.89,172.35L29.02,170.74L29.16,177.26L29.29,175.33L29.42,176.3L29.95,169.54L30.09,174.93L30.35,173.16L30.49,177.74L30.62,170.58L31.15,177.42L31.42,174.93L31.55,175.81L31.95,169.46L32.35,172.83L32.48,174.12L32.75,170.58L33.15,174.61L33.28,173.56L33.42,174.28L33.55,172.83L33.68,171.55L34.35,174.61L34.48,172.67L34.61,169.62L34.88,174.2L35.41,171.23L35.55,173.24L35.68,169.37L36.21,172.75L36.35,173.08L36.48,174.12L36.61,165.19L36.74,175.01L37.41,172.11L37.54,171.47L37.81,168.65L38.08,172.27L38.34,170.98L38.48,171.87L38.61,172.19L38.74,170.1L38.87,176.62L39.14,166.8L39.41,170.58L39.54,170.82L39.67,170.34L39.81,171.15L39.94,170.82L40.07,172.03L40.87,165.59L41.01,168.49L41.14,170.02L41.8,161.73L41.94,165.27L42.07,166.56L42.34,168.97L42.47,160.93L42.87,161.73L43,165.19L43.14,165.51L43.27,162.86L43.53,166.16L43.67,163.1L43.8,161.33L43.93,167.52L44.47,161.41L44.6,163.26L44.87,164.71L45.13,156.02L45.4,158.75L45.53,163.1L45.66,165.43L45.93,158.91L46.2,162.29L46.33,161.73L46.6,160.12L46.73,162.13L47,160.93L47.13,162.86L47.26,166.24L47.66,158.43L47.79,162.86L47.93,161.49L48.06,161.73L48.19,165.03L48.33,158.67L48.59,167.77L48.99,162.21L49.13,161.73L49.39,161.09L49.53,163.9L50.32,159.48L50.46,160.12L50.59,167.52L50.72,159.56L51.39,161.33L51.52,164.87L52.45,158.75L52.59,161.65L52.99,158.91L53.25,167.85L53.39,164.79L53.52,162.62L53.79,156.26L54.05,163.74L54.19,157.22L54.32,162.78L54.58,164.79L54.72,159.32L54.98,158.43L55.25,164.87L55.65,164.31L55.78,162.7L55.92,163.5L56.05,157.71L56.18,156.66L56.32,158.59L56.45,160.84L56.58,161.25L56.71,160.52L56.85,157.3L57.51,165.67L57.65,162.94L57.78,158.83L57.91,157.55L58.05,163.26L58.18,160.93L58.31,163.98L58.45,164.55L58.58,160.36L58.98,158.35L59.11,161.65L59.24,158.43L59.38,161.97L59.51,163.34L59.64,157.47L59.78,161.73L59.91,156.18L60.04,165.59L60.71,164.14L60.84,160.68L60.97,160.93L61.11,162.86L61.51,156.9L61.64,163.82L61.77,157.06L61.91,161.49L62.04,161.17L62.17,162.29L62.31,153.28L62.84,164.39L63.11,162.62L63.24,156.1L63.9,162.62L64.04,160.44L64.17,157.63L64.44,160.2L64.84,156.1L64.97,157.95L65.1,156.34L65.24,160.44L65.63,159.07L65.77,161.25L66.03,164.31L66.7,155.69L66.83,159.88L67.1,160.76L67.37,156.34L67.5,158.83L67.63,162.62L67.76,155.94L68.43,159.88L68.56,161.49L69.23,156.02L69.36,160.93L69.89,163.18L70.03,158.91L70.16,157.71L70.43,161.41L70.56,162.13L71.09,156.26L71.23,160.68L71.36,160.68L71.63,157.22L71.76,160.68L71.89,160.93L72.03,158.03L72.29,162.53L72.69,156.18L72.82,160.52L72.96,157.47L73.09,161.81L73.36,156.26L73.62,158.51L73.76,157.95L74.16,152.56L74.29,160.84L74.42,159.72L74.69,155.13L75.09,157.06L75.22,165.19L76.02,153.12L76.15,159.07L76.42,161.57L76.55,154.01L76.95,160.52L77.22,157.3L77.35,151.27L77.62,163.02L78.15,158.59L78.28,155.61L78.55,161.25L78.68,156.74L78.81,157.71L78.95,153.6L79.08,153.68L79.21,158.75L79.75,156.18L79.88,153.52L80.01,160.28L80.55,151.75L80.68,155.37L80.94,155.94L81.08,155.37L81.21,154.09L81.48,160.2L82.01,159.07L82.14,154.57L82.41,162.7L82.94,159.64L83.08,152.4L83.34,160.12L83.47,158.11L83.61,152.56L83.87,161.89L84.41,155.61L84.54,161.25L84.94,151.67L85.34,155.86L85.47,161.57L86.14,154.97L86.27,161.33L86.4,152.07L86.54,162.13L87.07,154.49L87.2,156.9L87.47,155.37L87.73,159.72L87.87,153.68L88,154.49L88.13,151.83L88.27,160.6L88.4,157.22L88.93,158.19L89.07,159.56L89.6,154.65L89.86,155.78L90,158.03L90.53,153.2L90.8,154.41L90.93,162.13L91.06,154.25L91.6,162.45L91.73,156.34L91.86,159.48L91.99,153.6L92.13,160.2L92.66,154.65L92.79,154.25L92.93,160.6L93.46,153.44L93.59,160.12L93.73,157.87L94.13,155.37L94.26,160.36L94.39,152.07L95.19,161.65L95.32,157.71L95.59,158.51L95.72,154.09L96.12,159.72L96.26,152.23L96.39,159.24L96.52,155.53L96.79,153.76L96.92,159.72L97.32,157.47L97.45,157.38L98.12,152.8L98.25,158.35L98.52,161.65L98.92,153.44L99.05,163.1L99.32,164.47L99.45,150.71L99.98,153.6L100.12,153.52L100.25,161.65L100.52,152.56L100.91,159.88L101.05,157.3L101.18,150.54L101.31,161.65L101.85,154.49L101.98,159.64L102.25,162.13L102.51,151.51L102.65,162.45L103.58,151.35L103.71,158.43L103.98,154.81L104.11,155.69L104.24,159.64L104.38,159.72L104.51,157.63L104.78,160.44L104.91,154.17L105.04,158.43L105.18,155.53L106.11,160.68L106.24,156.9L106.37,154.65L106.64,160.44L107.04,155.78L107.17,155.45L107.44,158.67L107.57,154.73L108.1,161.89L108.37,158.59L108.5,157.14L108.64,154.17L108.77,158.59L109.17,158.43L109.3,156.9L109.44,153.2L109.57,163.02L109.97,157.95L110.1,161.01L110.63,150.63L110.77,158.43L110.9,155.45L111.3,160.36L111.43,158.27L111.57,157.71L111.7,157.47L111.83,159.64L111.96,154.09L112.5,154.17L112.63,158.99L113.03,159.56L113.16,154.01L113.43,154.89L113.56,157.38L113.96,157.06L114.1,161.17L114.23,155.29L114.76,161.25L114.89,155.69L115.03,155.05L115.29,159.48L115.83,158.19L115.96,154.49L116.09,161.97L116.36,152.15L116.76,157.79L116.89,160.6L117.16,156.82L117.56,158.03L117.69,159.8L117.96,154.09L118.62,154.33L118.75,161.09L119.69,154.65L119.82,153.6L119.95,160.84L120.49,153.76L120.62,154.09L120.75,154.17L120.88,157.95L121.15,155.78L121.42,157.87L121.55,160.52L122.35,152.56L122.48,160.84L122.75,156.9L122.88,157.47L123.02,161.01L123.68,155.78L123.81,162.05L124.48,154.73L124.61,158.35L124.75,157.3L124.88,149.74L125.01,159.48L125.41,156.26L125.54,155.78L125.81,158.91L126.34,158.67L126.48,157.95L126.74,155.94L126.88,153.6L127.01,153.76L127.14,158.11L127.28,160.52L127.67,156.02L127.81,152.48L128.34,151.43L128.47,160.84L128.61,160.04L128.74,155.53L129.41,161.89L129.54,159.48L129.67,155.45L130.07,159.64L130.2,154.81L130.47,158.03L130.6,156.98L131,155.61L131.14,158.91L131.27,155.05L131.54,158.99L131.67,153.52L132.47,156.82L132.6,157.14L132.87,159.88L133,158.59" style="vector-effect: non-scaling-stroke; fill: none; stroke: rgb(0, 0, 0); stroke-opacity: 1; stroke-width: 2px; opacity: 1;"/></g><g class="points"/><g class="text"/></g><g class="trace scatter trace0015d4" style="stroke-miterlimit: 2; opacity: 1;"><g class="fills"/><g class="errorbars"/><g class="lines"><path class="js-line" d="M0,304L1.2,251.94L1.33,258.13L2.26,249.68L2.4,248.96L3.46,243.49L3.59,246.71L3.99,238.58L4.39,238.66L4.53,241.48L4.79,235.68L5.19,243.65L5.33,237.37L5.46,237.53L5.86,241.15L6.26,238.98L6.39,233.43L6.92,239.14L7.32,238.82L7.46,231.5L7.59,236.08L7.85,231.42L8.12,231.5L8.25,229.49L8.52,235.68L8.65,232.7L8.79,230.53L9.32,230.21L9.45,234.72L9.59,231.09L9.85,235.12L9.98,229.73L10.12,231.18L10.38,226.19L10.78,231.01L10.92,231.18L11.18,228.28L11.32,236.08L11.45,228.76L11.58,228.68L11.98,234.07L12.38,223.69L12.51,229L12.91,225.14L13.05,231.09L13.18,224.74L13.71,226.03L13.85,231.18L14.78,224.09L14.91,230.61L15.18,224.01L15.71,224.82L15.84,226.91L15.98,227.07L16.11,224.58L16.38,225.7L16.51,224.17L16.64,222.97L17.17,227.47L17.31,227.07L17.44,219.51L17.84,228.92L18.24,222.73L18.37,225.06L18.51,221.52L18.77,229.08L19.04,225.46L19.17,225.94L19.44,224.25L19.57,226.75L19.7,229L20.5,219.27L20.64,225.54L20.77,219.91L21.04,228.44L21.3,223.37L21.43,225.62L21.7,224.01L21.83,225.94L21.97,219.35L22.5,218.46L22.63,226.51L22.77,218.3L23.7,226.75L23.83,220.07L24.1,221.28L24.23,217.66L24.76,217.41L25.16,223.93L25.3,221.44L25.43,221.76L25.69,221.44L25.83,219.75L26.09,218.22L26.23,218.7L26.36,211.94L27.29,221.6L27.43,220.47L27.56,220.71L27.69,223.69L28.09,217.74L28.49,221.6L28.62,220.79L28.76,215.08L29.02,224.01L29.42,218.62L29.56,219.83L29.69,223.13L30.09,216.53L30.22,214.68L30.89,222.73L31.29,221.68L31.42,215L31.69,214.04L32.09,219.91L32.35,219.02L32.48,220.07L32.75,222L33.02,214.44L33.28,216.61L33.42,217.41L33.55,217.5L33.68,218.7L33.95,219.75L34.08,213.87L34.35,216.29L34.48,218.22L34.61,213.55L35.15,216.05L35.28,220.88L35.41,221.12L35.55,219.35L35.68,220.31L35.81,215.56L36.08,215L36.21,220.47L36.35,215L36.48,214.04L37.41,218.94L37.54,210.17L38.08,218.54L38.34,213.07L38.48,214.84L39.01,214.36L39.41,219.75L39.54,214.44L39.67,217.66L39.94,213.15L40.21,215.73L40.34,213.39L40.74,216.93L41.01,215L41.14,213.39L41.4,212.43L41.54,216.69L41.67,217.25L41.8,209.53L42.47,215.81L42.6,213.47L42.74,213.23L43,217.9L43.4,215.4L43.53,213.15L43.67,210.17L44.07,216.13L44.2,217.5L44.73,209.37L45,209.77L45.13,215.32L45.4,217.9L46.2,209.21L46.33,211.3L46.6,210.49L47,217.33L47.13,214.12L47.26,211.46L47.66,215.81L48.06,212.99L48.19,213.31L48.59,209.13L48.73,214.52L48.86,211.06L48.99,213.23L49.26,207.52L49.39,215.97L49.66,210.9L49.79,213.55L49.92,213.63L50.06,217.5L50.46,210.49L50.86,213.95L50.99,212.59L51.12,213.63L51.26,212.18L51.39,212.51L51.52,210.33L52.06,215.16L52.45,214.68L52.59,211.06L52.72,215.73L52.99,207.76L53.25,213.79L53.39,205.91L53.65,214.76L54.05,214.44L54.19,206.71L54.32,206.95L54.45,212.18L54.72,210.41L54.85,211.22L54.98,214.44L55.25,217.58L55.78,209.21L55.92,213.31L56.45,208.48L56.71,211.3L56.85,211.94L57.25,213.23L57.51,205.42L57.65,207.28L57.78,213.79L58.45,207.76L58.71,208.08L58.84,208.32L58.98,206.55L59.11,213.31L59.38,210.49L59.51,211.62L60.18,205.99L60.31,211.94L60.44,212.83L60.58,208.64L60.71,209.69L60.84,216.85L61.24,208.72L61.64,211.54L61.77,210.66L62.04,211.7L62.17,207.2L62.44,209.45L62.57,212.1L63.11,208.16L63.24,208.4L63.37,211.62L63.5,214.28L63.9,210.98L64.04,204.7L64.57,209.21L64.7,206.87L64.84,206.07L65.1,213.39L65.37,209.05L65.5,204.38L66.03,213.87L66.3,208.56L66.43,207.03L67.1,214.04L67.23,206.15L67.5,210.74L67.9,207.92L68.03,208.72L68.43,204.14L68.56,208.72L68.7,202.45L68.96,213.39L69.23,210.09L69.36,206.87L69.5,206.31L69.63,209.77L69.76,212.59L70.03,207.6L70.29,209.61L70.43,210.25L70.56,207.68L70.83,210.33L71.09,208.64L71.23,210.74L71.49,205.59L72.03,207.68L72.16,212.67L72.42,211.86L72.56,205.1L73.22,213.47L73.36,209.85L73.49,203.98L73.62,212.99L74.16,208.16L74.29,205.34L74.82,208.97L74.95,208.24L75.09,201.72L75.35,210.17L75.89,209.69L76.02,209.29L76.95,205.42L77.08,210.33L77.62,205.1L77.88,205.42L78.02,205.02L78.28,201.64L78.95,210.49L79.08,203.74L79.35,208.72L79.48,201.16L80.01,209.93L80.15,207.92L80.28,203.65L80.55,208.24L80.81,202.13L81.08,207.68L81.21,202.05L81.88,211.78L82.01,207.2L82.14,202.21L82.28,203.01L82.41,200.68L82.54,206.71L82.94,207.68L83.08,205.42L83.21,210.25L84.14,203.57L84.27,203.65L84.41,209.61L84.54,203.09L85.21,204.38L85.34,208.56L85.87,211.38L86.27,201.64L86.4,204.94L86.54,205.02L86.67,206.15L86.94,204.38L87.34,209.21L87.47,203.9L87.6,207.36L87.73,201.88L88.13,202.29L88.27,201.96L88.93,209.13L89.2,208.56L89.33,206.55L89.47,206.95L89.6,205.26L89.73,203.41L89.86,203.65L90,206.07L90.13,203.74L90.26,208.24L90.66,207.2L90.8,206.95L91.06,201.8L91.6,203.65L91.73,207.44L91.86,200.52L92.53,201.72L92.66,202.85L92.93,205.1L93.19,203.9L93.33,203.17L93.59,203.98L93.73,207.84L94.66,202.77L94.79,204.14L94.92,207.28L95.46,203.57L95.59,206.39L95.72,200.92L96.52,205.83L96.65,200.68L96.79,201.16L96.92,205.75L97.19,204.14L97.45,205.34L97.59,206.23L97.72,206.79L97.85,204.86L97.99,206.71L98.12,202.45L98.25,202.93L98.39,209.45L99.18,202.05L99.32,205.99L99.58,205.51L99.72,203.41L99.85,203.01L99.98,204.06L100.12,197.86L100.25,208.8L100.91,203.74L101.05,202.77L101.18,203.65L101.31,203.09L101.45,199.31L101.71,198.75L102.25,208.72L102.38,201.56L102.51,206.55L102.65,200.84L103.05,203.57L103.18,201.8L103.31,199.31L103.71,205.75L103.84,202.69L103.98,204.46L104.24,199.55L104.51,202.05L104.64,207.76L105.31,200.68L105.44,202.69L105.57,205.67L106.11,199.55L106.51,202.37L106.64,203.33L107.04,204.22L107.57,200.84L107.7,202.21L107.84,200.11L108.1,202.93L108.24,206.55L108.37,207.36L108.5,204.38L108.64,203.33L109.04,198.99L109.17,200.52L109.3,207.6L109.57,201.56L109.83,207.76L110.1,204.7L110.23,204.46L110.5,202.93L110.77,205.51L110.9,202.69L111.43,198.42L111.7,199.55L111.83,199.95L112.1,203.17L112.36,201.48L112.5,199.71L113.03,205.99L113.3,205.83L113.43,201.72L113.7,202.45L114.23,197.46L114.36,201L114.63,199.07L114.76,206.87L115.03,199.39L115.56,202.61L115.69,203.82L115.96,200.92L116.36,204.46L116.49,201.08L116.62,207.36L117.42,198.1L117.56,203.33L117.82,200.11L118.22,200.52L118.36,202.05L118.49,207.52L118.62,201L119.02,205.51L119.15,200.36L119.29,204.62L119.95,203.09L120.09,199.23L120.35,200.68L120.49,200.44L120.62,202.53L120.75,202.69L120.88,206.31L121.15,198.99L121.28,207.36L121.55,203.9L121.68,206.23L122.62,196.81L122.75,204.14L122.88,196.57L123.15,205.91L123.41,203.74L123.55,203.09L124.48,194.16L124.61,199.23L124.75,197.3L124.88,203.41L125.01,202.77L125.15,203.82L125.41,199.71L125.81,200.27L125.94,202.93L126.21,197.06L126.61,197.86L126.74,201.96L127.01,202.93L127.54,196.9L127.67,201.24L127.81,204.22L128.07,198.5L128.34,201.64L128.47,201.16L128.87,195.93L129.01,202.13L129.54,198.1L129.8,199.47L129.94,200.11L130.2,201.48L130.34,197.06L130.6,203.25L130.74,193.03L131,200.03L131.14,198.91L131.27,200.92L131.54,193.84L131.67,195.37L131.93,207.2L132.2,194.4L132.47,203.33L132.6,198.59L132.87,196.49L133,201.08" style="vector-effect: non-scaling-stroke; fill: none; stroke: rgb(255, 255, 0); stroke-opacity: 1; stroke-width: 2px; opacity: 1;"/></g><g class="points"/><g class="text"/></g></g></g><g class="overplot"/><path class="xlines-above crisp" d="M0,0" style="fill: none;"/><path class="ylines-above crisp" d="M0,0" style="fill: none;"/><g class="overlines-above"/><g class="xaxislayer-above"><g class="xtick"><text text-anchor="middle" x="0" y="433" transform="translate(487,0)" style="font-family: 'Open Sans', verdana, arial, sans-serif; font-size: 12px; fill: rgb(42, 63, 95); fill-opacity: 1; white-space: pre; opacity: 1;">0</text></g><g class="xtick"><text text-anchor="middle" x="0" y="433" style="font-family: 'Open Sans', verdana, arial, sans-serif; font-size: 12px; fill: rgb(42, 63, 95); fill-opacity: 1; white-space: pre; opacity: 1;" transform="translate(513.63,0)">200</text></g><g class="xtick"><text text-anchor="middle" x="0" y="433" style="font-family: 'Open Sans', verdana, arial, sans-serif; font-size: 12px; fill: rgb(42, 63, 95); fill-opacity: 1; white-space: pre; opacity: 1;" transform="translate(540.25,0)">400</text></g><g class="xtick"><text text-anchor="middle" x="0" y="433" style="font-family: 'Open Sans', verdana, arial, sans-serif; font-size: 12px; fill: rgb(42, 63, 95); fill-opacity: 1; white-space: pre; opacity: 1;" transform="translate(566.88,0)">600</text></g><g class="xtick"><text text-anchor="middle" x="0" y="433" style="font-family: 'Open Sans', verdana, arial, sans-serif; font-size: 12px; fill: rgb(42, 63, 95); fill-opacity: 1; white-space: pre; opacity: 1;" transform="translate(593.51,0)">800</text></g></g><g class="yaxislayer-above"><g class="ytick"><text text-anchor="end" x="486" y="4.199999999999999" transform="translate(0,412.05)" style="font-family: 'Open Sans', verdana, arial, sans-serif; font-size: 12px; fill: rgb(42, 63, 95); fill-opacity: 1; white-space: pre; opacity: 1;">0</text></g><g class="ytick"><text text-anchor="end" x="486" y="4.199999999999999" style="font-family: 'Open Sans', verdana, arial, sans-serif; font-size: 12px; fill: rgb(42, 63, 95); fill-opacity: 1; white-space: pre; opacity: 1;" transform="translate(0,371.81)">5</text></g><g class="ytick"><text text-anchor="end" x="486" y="4.199999999999999" style="font-family: 'Open Sans', verdana, arial, sans-serif; font-size: 12px; fill: rgb(42, 63, 95); fill-opacity: 1; white-space: pre; opacity: 1;" transform="translate(0,331.58000000000004)">10</text></g><g class="ytick"><text text-anchor="end" x="486" y="4.199999999999999" style="font-family: 'Open Sans', verdana, arial, sans-serif; font-size: 12px; fill: rgb(42, 63, 95); fill-opacity: 1; white-space: pre; opacity: 1;" transform="translate(0,291.34000000000003)">15</text></g><g class="ytick"><text text-anchor="end" x="486" y="4.199999999999999" style="font-family: 'Open Sans', verdana, arial, sans-serif; font-size: 12px; fill: rgb(42, 63, 95); fill-opacity: 1; white-space: pre; opacity: 1;" transform="translate(0,251.11)">20</text></g><g class="ytick"><text text-anchor="end" x="486" y="4.199999999999999" style="font-family: 'Open Sans', verdana, arial, sans-serif; font-size: 12px; fill: rgb(42, 63, 95); fill-opacity: 1; white-space: pre; opacity: 1;" transform="translate(0,210.87)">25</text></g><g class="ytick"><text text-anchor="end" x="486" y="4.199999999999999" style="font-family: 'Open Sans', verdana, arial, sans-serif; font-size: 12px; fill: rgb(42, 63, 95); fill-opacity: 1; white-space: pre; opacity: 1;" transform="translate(0,170.64)">30</text></g><g class="ytick"><text text-anchor="end" x="486" y="4.199999999999999" style="font-family: 'Open Sans', verdana, arial, sans-serif; font-size: 12px; fill: rgb(42, 63, 95); fill-opacity: 1; white-space: pre; opacity: 1;" transform="translate(0,130.4)">35</text></g></g><g class="overaxes-above"/></g></g><g class="polarlayer"/><g class="smithlayer"/><g class="ternarylayer"/><g class="geolayer"/><g class="funnelarealayer"/><g class="pielayer"/><g class="iciclelayer"/><g class="treemaplayer"/><g class="sunburstlayer"/><g class="glimages"/><defs id="topdefs-89c89d"><g class="clips"/><clipPath id="legend89c89d"><rect width="45" height="105" x="0" y="0"/></clipPath></defs><g class="layer-above"><g class="imagelayer"/><g class="shapelayer"/></g><g class="infolayer"><g class="legend" pointer-events="all" transform="translate(622.66,100)"><rect class="bg" shape-rendering="crispEdges" style="stroke: rgb(68, 68, 68); stroke-opacity: 1; fill: rgb(255, 255, 255); fill-opacity: 1; stroke-width: 0px;" width="45" height="105" x="0" y="0"/><g class="scrollbox" transform="" clip-path="url(#legend89c89d)"><g class="groups"><g class="traces" transform="translate(0,14.5)" style="opacity: 1;"><text class="legendtext" text-anchor="start" x="40" y="4.680000000000001" style="font-family: 'Open Sans', verdana, arial, sans-serif; font-size: 12px; fill: rgb(42, 63, 95); fill-opacity: 1; white-space: pre;">B1</text><g class="layers" style="opacity: 1;"><g class="legendfill"/><g class="legendlines"><path class="js-line" d="M5,0h30" style="fill: none; stroke: rgb(255, 0, 0); stroke-opacity: 1; stroke-width: 2px;"/></g><g class="legendsymbols"><g class="legendpoints"/></g></g><rect class="legendtoggle" x="0" y="-9.5" width="40" height="19" style="fill: rgb(0, 0, 0); fill-opacity: 0;"/></g><g class="traces" transform="translate(0,33.5)" style="opacity: 1;"><text class="legendtext" text-anchor="start" x="40" y="4.680000000000001" style="font-family: 'Open Sans', verdana, arial, sans-serif; font-size: 12px; fill: rgb(42, 63, 95); fill-opacity: 1; white-space: pre;">AVL</text><g class="layers" style="opacity: 1;"><g class="legendfill"/><g class="legendlines"><path class="js-line" d="M5,0h30" style="fill: none; stroke: rgb(128, 0, 128); stroke-opacity: 1; stroke-width: 2px;"/></g><g class="legendsymbols"><g class="legendpoints"/></g></g><rect class="legendtoggle" x="0" y="-9.5" width="40" height="19" style="fill: rgb(0, 0, 0); fill-opacity: 0;"/></g><g class="traces" transform="translate(0,52.5)" style="opacity: 1;"><text class="legendtext" text-anchor="start" x="40" y="4.680000000000001" style="font-family: 'Open Sans', verdana, arial, sans-serif; font-size: 12px; fill: rgb(42, 63, 95); fill-opacity: 1; white-space: pre;">B5</text><g class="layers" style="opacity: 1;"><g class="legendfill"/><g class="legendlines"><path class="js-line" d="M5,0h30" style="fill: none; stroke: rgb(0, 128, 0); stroke-opacity: 1; stroke-width: 2px;"/></g><g class="legendsymbols"><g class="legendpoints"/></g></g><rect class="legendtoggle" x="0" y="-9.5" width="40" height="19" style="fill: rgb(0, 0, 0); fill-opacity: 0;"/></g><g class="traces" transform="translate(0,71.5)" style="opacity: 1;"><text class="legendtext" text-anchor="start" x="40" y="4.680000000000001" style="font-family: 'Open Sans', verdana, arial, sans-serif; font-size: 12px; fill: rgb(42, 63, 95); fill-opacity: 1; white-space: pre;">B10</text><g class="layers" style="opacity: 1;"><g class="legendfill"/><g class="legendlines"><path class="js-line" d="M5,0h30" style="fill: none; stroke: rgb(0, 0, 0); stroke-opacity: 1; stroke-width: 2px;"/></g><g class="legendsymbols"><g class="legendpoints"/></g></g><rect class="legendtoggle" x="0" y="-9.5" width="40" height="19" style="fill: rgb(0, 0, 0); fill-opacity: 0;"/></g><g class="traces" transform="translate(0,90.5)" style="opacity: 1;"><text class="legendtext" text-anchor="start" x="40" y="4.680000000000001" style="font-family: 'Open Sans', verdana, arial, sans-serif; font-size: 12px; fill: rgb(42, 63, 95); fill-opacity: 1; white-space: pre;">Rubro Negra</text><g class="layers" style="opacity: 1;"><g class="legendfill"/><g class="legendlines"><path class="js-line" d="M5,0h30" style="fill: none; stroke: rgb(255, 255, 0); stroke-opacity: 1; stroke-width: 2px;"/></g><g class="legendsymbols"><g class="legendpoints"/></g></g><rect class="legendtoggle" x="0" y="-9.5" width="40" height="19" style="fill: rgb(0, 0, 0); fill-opacity: 0;"/></g></g></g><rect class="scrollbar" rx="20" ry="3" width="0" height="0" style="fill: rgb(128, 139, 164); fill-opacity: 1;" x="0" y="0"/></g><g class="g-gtitle"/><g class="g-xtitle"><text class="xtitle" x="553.5" y="444.8" text-anchor="middle" style="font-family: 'Open Sans', verdana, arial, sans-serif; font-size: 14px; fill: rgb(42, 63, 95); opacity: 1; font-weight: normal; white-space: pre;">chaves</text></g><g class="g-ytitle" transform="translate(37.7998046875,0)"><text class="ytitle" transform="rotate(-90,-24.80000000000001,260)" x="-24.80000000000001" y="260" text-anchor="middle" style="font-family: 'Open Sans', verdana, arial, sans-serif; font-size: 14px; fill: rgb(42, 63, 95); opacity: 1; font-weight: normal; white-space: pre;">operações</text></g></g></svg>