<svg class="main-svg" xmlns="http://www.w3.org/2000/svg" xmlns:xlink="http://www.w3.org/1999/xlink" width="700" height="500" style="" viewBox="0 0 700 500"><rect x="0" y="0" width="700" height="500" style="fill: rgb(255, 255, 255); fill-opacity: 1;"/><defs id="defs-867c77"><g class="clips"><clipPath id="clip867c77xyplot" class="plotclip"><rect width="133" height="320"/></clipPath><clipPath class="axesclip" id="clip867c77x"><rect x="487" y="0" width="133" height="500"/></clipPath><clipPath class="axesclip" id="clip867c77y"><rect x="0" y="100" width="700" height="320"/></clipPath><clipPath class="axesclip" id="clip867c77xy"><rect x="487" y="100" width="133" height="320"/></clipPath></g><g class="gradients"/><g class="patterns"/></defs><g class="bglayer"><rect class="bg" x="487" y="100" width="133" height="320" style="fill: rgb(255, 255, 255); fill-opacity: 1; stroke-width: 0;"/></g><g class="layer-below"><g class="imagelayer"/><g class="shapelayer"/></g><g class="cartesianlayer"><g class="subplot xy"><g class="layer-subplot"><g class="shapelayer"/><g class="imagelayer"/></g><g class="minor-gridlayer"><g class="x"/><g class="y"/></g><g class="gridlayer"><g class="x"><path class="xgrid crisp" transform="translate(513.63,0)" d="M0,100v320" style="stroke: rgb(255, 255, 255); stroke-opacity: 1; stroke-width: 1px;"/><path class="xgrid crisp" transform="translate(540.25,0)" d="M0,100v320" style="stroke: rgb(255, 255, 255); stroke-opacity: 1; stroke-width: 1px;"/><path class="xgrid crisp" transform="translate(566.88,0)" d="M0,100v320" style="stroke: rgb(255, 255, 255); stroke-opacity: 1; stroke-width: 1px;"/><path class="xgrid crisp" transform="translate(593.51,0)" d="M0,100v320" style="stroke: rgb(255, 255, 255); stroke-opacity: 1; stroke-width: 1px;"/></g><g class="y"><path class="ygrid crisp" transform="translate(0,370.34)" d="M487,0h133" style="stroke: rgb(255, 255, 255); stroke-opacity: 1; stroke-width: 1px;"/><path class="ygrid crisp" transform="translate(0,332.94)" d="M487,0h133" style="stroke: rgb(255, 255, 255); stroke-opacity: 1; stroke-width: 1px;"/><path class="ygrid crisp" transform="translate(0,295.53)" d="M487,0h133" style="stroke: rgb(255, 255, 255); stroke-opacity: 1; stroke-width: 1px;"/><path class="ygrid crisp" transform="translate(0,258.13)" d="M487,0h133" style="stroke: rgb(255, 255, 255); stroke-opacity: 1; stroke-width: 1px;"/><path class="ygrid crisp" transform="translate(0,220.73000000000002)" d="M487,0h133" style="stroke: rgb(255, 255, 255); stroke-opacity: 1; stroke-width: 1px;"/><path class="ygrid crisp" transform="translate(0,183.32)" d="M487,0h133" style="stroke: rgb(255, 255, 255); stroke-opacity: 1; stroke-width: 1px;"/><path class="ygrid crisp" transform="translate(0,145.92000000000002)" d="M487,0h133" style="stroke: rgb(255, 255, 255); stroke-opacity: 1; stroke-width: 1px;"/><path class="ygrid crisp" transform="translate(0,108.52)" d="M487,0h133" style="stroke: rgb(255, 255, 255); stroke-opacity: 1; stroke-width: 1px;"/></g></g><g class="zerolinelayer"><path class="xzl zl crisp" transform="translate(487,0)" d="M0,100v320" style="stroke: rgb(255, 255, 255); stroke-opacity: 1; stroke-width: 2px;"/><path class="yzl zl crisp" transform="translate(0,407.74)" d="M487,0h133" style="stroke: rgb(255, 255, 255); stroke-opacity: 1; stroke-width: 2px;"/></g><path class="xlines-below"/><path class="ylines-below"/><g class="overlines-below"/><g class="xaxislayer-below"/><g class="yaxislayer-below"/><g class="overaxes-below"/><g class="plot" transform="translate(487,100)" clip-path="url(#clip867c77xyplot)"><g class="scatterlayer mlayer"><g class="trace scatter tracefec028" style="stroke-miterlimit: 2; opacity: 1;"><g class="fills"/><g class="errorbars"/><g class="lines"><path class="js-line" d="M0,304L1.07,236.68L1.2,236.68L1.86,236.68L2,251.64L2.8,225.45L2.93,225.45L3.99,225.45L4.13,240.42L4.93,214.23L5.06,214.23L8.25,214.23L8.39,229.19L9.19,203.01L9.32,203.01L16.77,203.01L16.91,217.97L17.71,191.79L17.84,191.79L33.82,191.79L33.95,206.75L34.75,180.57L34.88,180.57L67.9,180.57L68.03,195.53L68.83,169.35L68.96,169.35L133,169.35" style="vector-effect: non-scaling-stroke; fill: none; stroke: rgb(128, 0, 128); stroke-opacity: 1; stroke-width: 2px; opacity: 1;"/></g><g class="points"/><g class="text"/></g><g class="trace scatter trace308737" style="stroke-miterlimit: 2; opacity: 1;"><g class="fills"/><g class="errorbars"/><g class="lines"><path class="js-line" d="M0,292.78L0.8,232.94L0.93,270.34L1.33,217.97L1.6,240.42L1.73,262.86L1.86,199.27L2.4,210.49L2.53,259.12L2.93,184.31L3.2,232.94L3.33,255.38L3.99,165.61L4.13,255.38L4.53,203.01L4.79,225.45L4.93,247.9L5.06,176.83L5.19,251.64L5.59,199.27L5.72,247.9L6.12,150.65L6.26,251.64L6.39,225.45L6.52,247.9L7.19,173.09L7.32,247.9L7.72,195.53L7.99,217.97L8.12,240.42L8.25,131.95L8.39,247.9L8.79,195.53L8.92,244.16L9.32,169.35L9.59,217.97L9.72,240.42L10.38,143.17L10.52,244.16L10.92,191.79L11.18,214.23L11.32,236.68L11.45,165.61L11.58,240.42L11.98,188.05L12.12,236.68L12.51,116.99L12.65,244.16L13.05,191.79L13.31,214.23L13.45,236.68L13.58,165.61L13.71,240.42L14.11,188.05L14.25,236.68L14.64,139.43L14.78,240.42L14.91,214.23L15.04,236.68L15.71,161.87L15.84,236.68L16.24,184.31L16.51,206.75L16.64,229.19L16.77,98.29L16.91,240.42L17.31,188.05L17.44,236.68L17.84,161.87L18.11,210.49L18.24,232.94L18.9,135.69L19.04,236.68L19.44,184.31L19.7,206.75L19.84,229.19L19.97,158.13L20.1,232.94L20.5,180.57L20.64,229.19L21.04,109.51L21.17,236.68L21.57,184.31L21.83,206.75L21.97,229.19L22.1,158.13L22.23,232.94L22.63,180.57L22.77,229.19L23.17,131.95L23.3,232.94L23.43,206.75L23.56,229.19L24.23,154.39L24.36,229.19L24.76,176.83L25.03,199.27L25.16,221.71L25.3,83.32L25.43,236.68L25.83,184.31L25.96,232.94L26.36,158.13L26.63,206.75L26.76,229.19L27.43,131.95L27.56,232.94L27.96,180.57L28.22,203.01L28.36,225.45L28.49,154.39L28.62,229.19L29.02,176.83L29.16,225.45L29.56,105.77L29.69,232.94L30.09,180.57L30.35,203.01L30.49,225.45L30.62,154.39L30.75,229.19L31.15,176.83L31.29,225.45L31.69,128.21L31.82,229.19L31.95,203.01L32.09,225.45L32.75,150.65L32.88,225.45L33.28,173.09L33.55,195.53L33.68,217.97L33.82,64.62L33.95,232.94L34.35,180.57L34.48,229.19L34.88,154.39L35.15,203.01L35.28,225.45L35.95,128.21L36.08,229.19L36.48,176.83L36.74,199.27L36.88,221.71L37.01,150.65L37.14,225.45L37.54,173.09L37.68,221.71L38.08,102.03L38.21,229.19L38.61,176.83L38.87,199.27L39.01,221.71L39.14,150.65L39.27,225.45L39.67,173.09L39.81,221.71L40.21,124.47L40.34,225.45L40.47,199.27L40.61,221.71L41.27,146.91L41.4,221.71L41.8,169.35L42.07,191.79L42.2,214.23L42.34,75.84L42.47,229.19L42.87,176.83L43,225.45L43.4,150.65L43.67,199.27L43.8,221.71L44.47,124.47L44.6,225.45L45,173.09L45.27,195.53L45.4,217.97L45.53,146.91L45.66,221.71L46.06,169.35L46.2,217.97L46.6,98.29L46.73,225.45L47.13,173.09L47.4,195.53L47.53,217.97L47.66,146.91L47.79,221.71L48.19,169.35L48.33,217.97L48.73,120.73L48.86,221.71L48.99,195.53L49.13,217.97L49.79,143.17L49.92,217.97L50.32,165.61L50.59,188.05L50.72,210.49L50.86,49.66L50.99,229.19L51.39,176.83L51.52,225.45L51.92,150.65L52.19,199.27L52.32,221.71L52.99,124.47L53.12,225.45L53.52,173.09L53.79,195.53L53.92,217.97L54.05,146.91L54.19,221.71L54.58,169.35L54.72,217.97L55.12,98.29L55.25,225.45L55.65,173.09L55.92,195.53L56.05,217.97L56.18,146.91L56.32,221.71L56.71,169.35L56.85,217.97L57.25,120.73L57.38,221.71L57.51,195.53L57.65,217.97L58.31,143.17L58.45,217.97L58.84,165.61L59.11,188.05L59.24,210.49L59.38,72.1L59.51,225.45L59.91,173.09L60.04,221.71L60.44,146.91L60.71,195.53L60.84,217.97L61.51,120.73L61.64,221.71L62.04,169.35L62.31,191.79L62.44,214.23L62.57,143.17L62.71,217.97L63.11,165.61L63.24,214.23L63.64,94.55L63.77,221.71L64.17,169.35L64.44,191.79L64.57,214.23L64.7,143.17L64.84,217.97L65.24,165.61L65.37,214.23L65.77,116.99L65.9,217.97L66.03,191.79L66.17,214.23L66.83,139.43L66.97,214.23L67.37,161.87L67.63,184.31L67.76,206.75L67.9,30.96L68.03,225.45L68.43,173.09L68.56,221.71L68.96,146.91L69.23,195.53L69.36,217.97L70.03,120.73L70.16,221.71L70.56,169.35L70.83,191.79L70.96,214.23L71.09,143.17L71.23,217.97L71.63,165.61L71.76,214.23L72.16,94.55L72.29,221.71L72.69,169.35L72.96,191.79L73.09,214.23L73.22,143.17L73.36,217.97L73.76,165.61L73.89,214.23L74.29,116.99L74.42,217.97L74.55,191.79L74.69,214.23L75.35,139.43L75.49,214.23L75.89,161.87L76.15,184.31L76.29,206.75L76.42,68.36L76.55,221.71L76.95,169.35L77.08,217.97L77.48,143.17L77.75,191.79L77.88,214.23L78.55,116.99L78.68,217.97L79.08,165.61L79.35,188.05L79.48,210.49L79.61,139.43L79.75,214.23L80.15,161.87L80.28,210.49L80.68,90.81L80.81,217.97L81.21,165.61L81.48,188.05L81.61,210.49L81.74,139.43L81.88,214.23L82.28,161.87L82.41,210.49L82.81,113.25L82.94,214.23L83.08,188.05L83.21,210.49L83.87,135.69L84.01,210.49L84.41,158.13L84.67,180.57L84.81,203.01L84.94,42.18L85.07,221.71L85.47,169.35L85.6,217.97L86,143.17L86.27,191.79L86.4,214.23L87.07,116.99L87.2,217.97L87.6,165.61L87.87,188.05L88,210.49L88.13,139.43L88.27,214.23L88.67,161.87L88.8,210.49L89.2,90.81L89.33,217.97L89.73,165.61L90,188.05L90.13,210.49L90.26,139.43L90.4,214.23L90.8,161.87L90.93,210.49L91.33,113.25L91.46,214.23L91.6,188.05L91.73,210.49L92.39,135.69L92.53,210.49L92.93,158.13L93.19,180.57L93.33,203.01L93.46,64.62L93.59,217.97L93.99,165.61L94.13,214.23L94.52,139.43L94.79,188.05L94.92,210.49L95.59,113.25L95.72,214.23L96.12,161.87L96.39,184.31L96.52,206.75L96.65,135.69L96.79,210.49L97.19,158.13L97.32,206.75L97.72,87.06L97.85,214.23L98.25,161.87L98.52,184.31L98.65,206.75L98.78,135.69L98.92,210.49L99.32,158.13L99.45,206.75L99.85,109.51L99.98,210.49L100.12,184.31L100.25,206.75L100.91,131.95L101.05,206.75L101.45,154.39L101.71,176.83L101.85,199.27L101.98,16L102.11,221.71L102.51,169.35L102.65,217.97L103.05,143.17L103.31,191.79L103.44,214.23L104.11,116.99L104.24,217.97L104.64,165.61L104.91,188.05L105.04,210.49L105.18,139.43L105.31,214.23L105.71,161.87L105.84,210.49L106.24,90.81L106.37,217.97L106.77,165.61L107.04,188.05L107.17,210.49L107.31,139.43L107.44,214.23L107.84,161.87L107.97,210.49L108.37,113.25L108.5,214.23L108.64,188.05L108.77,210.49L109.44,135.69L109.57,210.49L109.97,158.13L110.23,180.57L110.37,203.01L110.5,64.62L110.63,217.97L111.03,165.61L111.17,214.23L111.57,139.43L111.83,188.05L111.96,210.49L112.63,113.25L112.76,214.23L113.16,161.87L113.43,184.31L113.56,206.75L113.7,135.69L113.83,210.49L114.23,158.13L114.36,206.75L114.76,87.06L114.89,214.23L115.29,161.87L115.56,184.31L115.69,206.75L115.83,135.69L115.96,210.49L116.36,158.13L116.49,206.75L116.89,109.51L117.02,210.49L117.16,184.31L117.29,206.75L117.96,131.95L118.09,206.75L118.49,154.39L118.75,176.83L118.89,199.27L119.02,38.44L119.15,217.97L119.55,165.61L119.69,214.23L120.09,139.43L120.35,188.05L120.49,210.49L121.15,113.25L121.28,214.23L121.68,161.87L121.95,184.31L122.08,206.75L122.22,135.69L122.35,210.49L122.75,158.13L122.88,206.75L123.28,87.06L123.41,214.23L123.81,161.87L124.08,184.31L124.21,206.75L124.35,135.69L124.48,210.49L124.88,158.13L125.01,206.75L125.41,109.51L125.54,210.49L125.68,184.31L125.81,206.75L126.48,131.95L126.61,206.75L127.01,154.39L127.28,176.83L127.41,199.27L127.54,60.88L127.67,214.23L128.07,161.87L128.21,210.49L128.61,135.69L128.87,184.31L129.01,206.75L129.67,109.51L129.8,210.49L130.2,158.13L130.47,180.57L130.6,203.01L130.74,131.95L130.87,206.75L131.27,154.39L131.4,203.01L131.8,83.32L131.93,210.49L132.33,158.13L132.6,180.57L132.73,203.01L132.87,131.95L133,206.75" style="vector-effect: non-scaling-stroke; fill: none; stroke: rgb(255, 0, 0); stroke-opacity: 1; stroke-width: 2px; opacity: 1;"/></g><g class="points"/><g class="text"/></g><g class="trace scatter tracec32bab" style="stroke-miterlimit: 2; opacity: 1;"><g class="fills"/><g class="errorbars"/><g class="lines"><path class="js-line" d="M0,292.78L1.33,251.64L1.46,262.86L1.73,262.86L1.86,255.38L2.13,236.68L2.26,259.12L2.66,251.64L2.8,251.64L2.93,229.19L3.06,259.12L3.46,251.64L3.59,251.64L3.73,229.19L3.86,255.38L4.26,247.9L4.39,247.9L4.53,221.71L4.66,255.38L5.06,247.9L5.19,247.9L5.33,221.71L5.46,255.38L5.86,247.9L5.99,247.9L6.12,221.71L6.26,255.38L6.66,247.9L6.79,247.9L6.92,221.71L7.06,251.64L7.46,244.16L7.59,244.16L7.72,214.23L7.85,251.64L8.25,244.16L8.39,244.16L8.52,214.23L8.65,251.64L9.05,244.16L9.19,244.16L9.32,203.01L9.45,247.9L9.85,240.42L9.98,240.42L10.12,214.23L10.25,247.9L10.65,240.42L10.78,240.42L10.92,214.23L11.05,247.9L11.45,240.42L11.58,240.42L11.72,214.23L11.85,244.16L12.25,236.68L12.38,236.68L12.51,206.75L12.65,244.16L13.05,236.68L13.18,236.68L13.31,206.75L13.45,244.16L13.85,236.68L13.98,236.68L14.11,188.05L14.25,244.16L14.64,236.68L14.78,236.68L14.91,210.49L15.04,244.16L15.44,236.68L15.58,236.68L15.71,210.49L15.84,244.16L16.24,236.68L16.38,236.68L16.51,210.49L16.64,240.42L17.04,232.94L17.17,232.94L17.31,203.01L17.44,240.42L17.84,232.94L17.97,232.94L18.11,203.01L18.24,240.42L18.64,232.94L18.77,232.94L18.9,180.57L19.04,244.16L19.44,236.68L19.57,236.68L19.7,210.49L19.84,244.16L20.24,236.68L20.37,236.68L20.5,210.49L20.64,244.16L21.04,236.68L21.17,236.68L21.3,210.49L21.43,240.42L21.83,232.94L21.97,232.94L22.1,203.01L22.23,240.42L22.63,232.94L22.77,232.94L22.9,203.01L23.03,240.42L23.43,232.94L23.56,232.94L23.7,180.57L23.83,240.42L24.23,232.94L24.36,232.94L24.5,206.75L24.63,240.42L25.03,232.94L25.16,232.94L25.3,206.75L25.43,240.42L25.83,232.94L25.96,232.94L26.09,206.75L26.23,236.68L26.63,229.19L26.76,229.19L26.89,199.27L27.03,236.68L27.43,229.19L27.56,229.19L27.69,199.27L27.82,236.68L28.22,229.19L28.36,229.19L28.49,173.09L28.62,240.42L29.02,232.94L29.16,232.94L29.29,206.75L29.42,240.42L29.82,232.94L29.95,232.94L30.09,206.75L30.22,240.42L30.62,232.94L30.75,232.94L30.89,206.75L31.02,236.68L31.42,229.19L31.55,229.19L31.69,199.27L31.82,236.68L32.22,229.19L32.35,229.19L32.48,199.27L32.62,236.68L33.02,229.19L33.15,229.19L33.28,173.09L33.42,240.42L33.82,232.94L33.95,232.94L34.08,206.75L34.22,240.42L34.61,232.94L34.75,232.94L34.88,206.75L35.01,240.42L35.41,232.94L35.55,232.94L35.68,206.75L35.81,236.68L36.21,229.19L36.35,229.19L36.48,199.27L36.61,236.68L37.01,229.19L37.14,229.19L37.28,199.27L37.41,236.68L37.81,229.19L37.94,229.19L38.08,173.09L38.21,240.42L38.61,232.94L38.74,232.94L38.87,206.75L39.01,240.42L39.41,232.94L39.54,232.94L39.67,206.75L39.81,240.42L40.21,232.94L40.34,232.94L40.47,206.75L40.61,236.68L41.01,229.19L41.14,229.19L41.27,199.27L41.4,236.68L41.8,229.19L41.94,229.19L42.07,199.27L42.2,236.68L42.6,229.19L42.74,229.19L42.87,173.09L43,236.68L43.4,229.19L43.53,229.19L43.67,203.01L43.8,236.68L44.2,229.19L44.33,229.19L44.47,203.01L44.6,236.68L45,229.19L45.13,229.19L45.27,203.01L45.4,232.94L45.8,225.45L45.93,225.45L46.06,195.53L46.2,232.94L46.6,225.45L46.73,225.45L46.86,195.53L47,232.94L47.4,225.45L47.53,225.45L47.66,165.61L47.79,236.68L48.19,229.19L48.33,229.19L48.46,203.01L48.59,236.68L48.99,229.19L49.13,229.19L49.26,203.01L49.39,236.68L49.79,229.19L49.92,229.19L50.06,203.01L50.19,232.94L50.59,225.45L50.72,225.45L50.86,195.53L50.99,232.94L51.39,225.45L51.52,225.45L51.66,195.53L51.79,232.94L52.19,225.45L52.32,225.45L52.45,165.61L52.59,236.68L52.99,229.19L53.12,229.19L53.25,203.01L53.39,236.68L53.79,229.19L53.92,229.19L54.05,203.01L54.19,236.68L54.58,229.19L54.72,229.19L54.85,203.01L54.98,232.94L55.38,225.45L55.52,225.45L55.65,195.53L55.78,232.94L56.18,225.45L56.32,225.45L56.45,195.53L56.58,232.94L56.98,225.45L57.11,225.45L57.25,154.39L57.38,232.94L57.78,225.45L57.91,225.45L58.05,199.27L58.18,232.94L58.58,225.45L58.71,225.45L58.84,199.27L58.98,232.94L59.38,225.45L59.51,225.45L59.64,199.27L59.78,229.19L60.18,221.71L60.31,221.71L60.44,191.79L60.58,229.19L60.97,221.71L61.11,221.71L61.24,191.79L61.37,229.19L61.77,221.71L61.91,221.71L62.04,165.61L62.17,232.94L62.57,225.45L62.71,225.45L62.84,199.27L62.97,232.94L63.37,225.45L63.5,225.45L63.64,199.27L63.77,232.94L64.17,225.45L64.3,225.45L64.44,199.27L64.57,229.19L64.97,221.71L65.1,221.71L65.24,191.79L65.37,229.19L65.77,221.71L65.9,221.71L66.03,191.79L66.17,229.19L66.57,221.71L66.7,221.71L66.83,165.61L66.97,232.94L67.37,225.45L67.5,225.45L67.63,199.27L67.76,232.94L68.16,225.45L68.3,225.45L68.43,199.27L68.56,232.94L68.96,225.45L69.1,225.45L69.23,199.27L69.36,229.19L69.76,221.71L69.89,221.71L70.03,191.79L70.16,229.19L70.56,221.71L70.69,221.71L70.83,191.79L70.96,229.19L71.36,221.71L71.49,221.71L71.63,165.61L71.76,229.19L72.16,221.71L72.29,221.71L72.42,195.53L72.56,229.19L72.96,221.71L73.09,221.71L73.22,195.53L73.36,229.19L73.76,221.71L73.89,221.71L74.02,195.53L74.16,225.45L74.55,217.97L74.69,217.97L74.82,188.05L74.95,225.45L75.35,217.97L75.49,217.97L75.62,188.05L75.75,225.45L76.15,217.97L76.29,217.97L76.42,158.13L76.55,229.19L76.95,221.71L77.08,221.71L77.22,195.53L77.35,229.19L77.75,221.71L77.88,221.71L78.02,195.53L78.15,229.19L78.55,221.71L78.68,221.71L78.81,195.53L78.95,225.45L79.35,217.97L79.48,217.97L79.61,188.05L79.75,225.45L80.15,217.97L80.28,217.97L80.41,188.05L80.55,225.45L80.94,217.97L81.08,217.97L81.21,158.13L81.34,229.19L81.74,221.71L81.88,221.71L82.01,195.53L82.14,229.19L82.54,221.71L82.68,221.71L82.81,195.53L82.94,229.19L83.34,221.71L83.47,221.71L83.61,195.53L83.74,225.45L84.14,217.97L84.27,217.97L84.41,188.05L84.54,225.45L84.94,217.97L85.07,217.97L85.21,188.05L85.34,225.45L85.74,217.97L85.87,217.97L86,139.43L86.14,229.19L86.54,221.71L86.67,221.71L86.8,195.53L86.94,229.19L87.34,221.71L87.47,221.71L87.6,195.53L87.73,229.19L88.13,221.71L88.27,221.71L88.4,195.53L88.53,225.45L88.93,217.97L89.07,217.97L89.2,188.05L89.33,225.45L89.73,217.97L89.86,217.97L90,188.05L90.13,225.45L90.53,217.97L90.66,217.97L90.8,161.87L90.93,229.19L91.33,221.71L91.46,221.71L91.6,195.53L91.73,229.19L92.13,221.71L92.26,221.71L92.39,195.53L92.53,229.19L92.93,221.71L93.06,221.71L93.19,195.53L93.33,225.45L93.73,217.97L93.86,217.97L93.99,188.05L94.13,225.45L94.52,217.97L94.66,217.97L94.79,188.05L94.92,225.45L95.32,217.97L95.46,217.97L95.59,161.87L95.72,229.19L96.12,221.71L96.26,221.71L96.39,195.53L96.52,229.19L96.92,221.71L97.05,221.71L97.19,195.53L97.32,229.19L97.72,221.71L97.85,221.71L97.99,195.53L98.12,225.45L98.52,217.97L98.65,217.97L98.78,188.05L98.92,225.45L99.32,217.97L99.45,217.97L99.58,188.05L99.72,225.45L100.12,217.97L100.25,217.97L100.38,161.87L100.52,225.45L100.91,217.97L101.05,217.97L101.18,191.79L101.31,225.45L101.71,217.97L101.85,217.97L101.98,191.79L102.11,225.45L102.51,217.97L102.65,217.97L102.78,191.79L102.91,221.71L103.31,214.23L103.44,214.23L103.58,184.31L103.71,221.71L104.11,214.23L104.24,214.23L104.38,184.31L104.51,221.71L104.91,214.23L105.04,214.23L105.18,154.39L105.31,225.45L105.71,217.97L105.84,217.97L105.97,191.79L106.11,225.45L106.51,217.97L106.64,217.97L106.77,191.79L106.91,225.45L107.31,217.97L107.44,217.97L107.57,191.79L107.7,221.71L108.1,214.23L108.24,214.23L108.37,184.31L108.5,221.71L108.9,214.23L109.04,214.23L109.17,184.31L109.3,221.71L109.7,214.23L109.83,214.23L109.97,154.39L110.1,225.45L110.5,217.97L110.63,217.97L110.77,191.79L110.9,225.45L111.3,217.97L111.43,217.97L111.57,191.79L111.7,225.45L112.1,217.97L112.23,217.97L112.36,191.79L112.5,221.71L112.9,214.23L113.03,214.23L113.16,184.31L113.3,221.71L113.7,214.23L113.83,214.23L113.96,184.31L114.1,221.71L114.49,214.23L114.63,214.23L114.76,131.95L114.89,229.19L115.29,221.71L115.43,221.71L115.56,195.53L115.69,229.19L116.09,221.71L116.23,221.71L116.36,195.53L116.49,229.19L116.89,221.71L117.02,221.71L117.16,195.53L117.29,225.45L117.69,217.97L117.82,217.97L117.96,188.05L118.09,225.45L118.49,217.97L118.62,217.97L118.75,188.05L118.89,225.45L119.29,217.97L119.42,217.97L119.55,161.87L119.69,229.19L120.09,221.71L120.22,221.71L120.35,195.53L120.49,229.19L120.88,221.71L121.02,221.71L121.15,195.53L121.28,229.19L121.68,221.71L121.82,221.71L121.95,195.53L122.08,225.45L122.48,217.97L122.62,217.97L122.75,188.05L122.88,225.45L123.28,217.97L123.41,217.97L123.55,188.05L123.68,225.45L124.08,217.97L124.21,217.97L124.35,161.87L124.48,229.19L124.88,221.71L125.01,221.71L125.15,195.53L125.28,229.19L125.68,221.71L125.81,221.71L125.94,195.53L126.08,229.19L126.48,221.71L126.61,221.71L126.74,195.53L126.88,225.45L127.28,217.97L127.41,217.97L127.54,188.05L127.67,225.45L128.07,217.97L128.21,217.97L128.34,188.05L128.47,225.45L128.87,217.97L129.01,217.97L129.14,161.87L129.27,225.45L129.67,217.97L129.8,217.97L129.94,191.79L130.07,225.45L130.47,217.97L130.6,217.97L130.74,191.79L130.87,225.45L131.27,217.97L131.4,217.97L131.54,191.79L131.67,221.71L132.07,214.23L132.2,214.23L132.33,184.31L132.47,221.71L132.87,214.23L133,214.23" style="vector-effect: non-scaling-stroke; fill: none; stroke: rgb(0, 128, 0); stroke-opacity: 1; stroke-width: 2px; opacity: 1;"/></g><g class="points"/><g class="text"/></g><g class="trace scatter trace9d3729" style="stroke-miterlimit: 2; opacity: 1;"><g class="fills"/><g class="errorbars"/><g class="lines"><path class="js-line" d="M0,292.78L1.2,262.86L1.33,262.86L2,262.86L2.13,255.38L2.53,255.38L2.66,244.16L3.46,255.38L3.59,247.9L3.99,247.9L4.13,229.19L4.93,251.64L5.06,244.16L5.46,244.16L5.59,221.71L6.39,251.64L6.52,244.16L6.92,244.16L7.06,221.71L7.85,247.9L7.99,240.42L8.39,240.42L8.52,214.23L9.32,247.9L9.45,240.42L9.85,240.42L9.98,214.23L10.78,247.9L10.92,240.42L11.32,240.42L11.45,214.23L12.25,247.9L12.38,240.42L12.78,240.42L12.91,214.23L13.71,244.16L13.85,236.68L14.25,236.68L14.38,206.75L15.18,244.16L15.31,236.68L15.71,236.68L15.84,206.75L16.64,244.16L16.77,236.68L17.17,236.68L17.31,206.75L18.11,244.16L18.24,236.68L18.64,236.68L18.77,206.75L19.57,244.16L19.7,236.68L20.1,236.68L20.24,206.75L21.04,244.16L21.17,236.68L21.57,236.68L21.7,206.75L22.5,244.16L22.63,236.68L23.03,236.68L23.17,206.75L23.96,244.16L24.1,236.68L24.5,236.68L24.63,206.75L25.43,240.42L25.56,232.94L25.96,232.94L26.09,199.27L26.89,240.42L27.03,232.94L27.43,232.94L27.56,199.27L28.36,240.42L28.49,232.94L28.89,232.94L29.02,199.27L29.82,240.42L29.95,232.94L30.35,232.94L30.49,199.27L31.29,240.42L31.42,232.94L31.82,232.94L31.95,188.05L32.75,236.68L32.88,229.19L33.28,229.19L33.42,199.27L34.22,236.68L34.35,229.19L34.75,229.19L34.88,199.27L35.68,236.68L35.81,229.19L36.21,229.19L36.35,199.27L37.14,236.68L37.28,229.19L37.68,229.19L37.81,199.27L38.61,236.68L38.74,229.19L39.14,229.19L39.27,199.27L40.07,236.68L40.21,229.19L40.61,229.19L40.74,199.27L41.54,232.94L41.67,225.45L42.07,225.45L42.2,191.79L43,232.94L43.14,225.45L43.53,225.45L43.67,191.79L44.47,232.94L44.6,225.45L45,225.45L45.13,191.79L45.93,232.94L46.06,225.45L46.46,225.45L46.6,191.79L47.4,232.94L47.53,225.45L47.93,225.45L48.06,173.09L48.86,232.94L48.99,225.45L49.39,225.45L49.53,195.53L50.32,232.94L50.46,225.45L50.86,225.45L50.99,195.53L51.79,232.94L51.92,225.45L52.32,225.45L52.45,195.53L53.25,232.94L53.39,225.45L53.79,225.45L53.92,195.53L54.72,232.94L54.85,225.45L55.25,225.45L55.38,195.53L56.18,232.94L56.32,225.45L56.71,225.45L56.85,195.53L57.65,229.19L57.78,221.71L58.18,221.71L58.31,188.05L59.11,229.19L59.24,221.71L59.64,221.71L59.78,188.05L60.58,229.19L60.71,221.71L61.11,221.71L61.24,188.05L62.04,229.19L62.17,221.71L62.57,221.71L62.71,188.05L63.5,229.19L63.64,221.71L64.04,221.71L64.17,165.61L64.97,232.94L65.1,225.45L65.5,225.45L65.63,195.53L66.43,232.94L66.57,225.45L66.97,225.45L67.1,195.53L67.9,232.94L68.03,225.45L68.43,225.45L68.56,195.53L69.36,232.94L69.5,225.45L69.89,225.45L70.03,195.53L70.83,232.94L70.96,225.45L71.36,225.45L71.49,195.53L72.29,232.94L72.42,225.45L72.82,225.45L72.96,195.53L73.76,229.19L73.89,221.71L74.29,221.71L74.42,188.05L75.22,229.19L75.35,221.71L75.75,221.71L75.89,188.05L76.68,229.19L76.82,221.71L77.22,221.71L77.35,188.05L78.15,229.19L78.28,221.71L78.68,221.71L78.81,188.05L79.61,229.19L79.75,221.71L80.15,221.71L80.28,165.61L81.08,229.19L81.21,221.71L81.61,221.71L81.74,191.79L82.54,229.19L82.68,221.71L83.08,221.71L83.21,191.79L84.01,229.19L84.14,221.71L84.54,221.71L84.67,191.79L85.47,229.19L85.6,221.71L86,221.71L86.14,191.79L86.94,229.19L87.07,221.71L87.47,221.71L87.6,191.79L88.4,229.19L88.53,221.71L88.93,221.71L89.07,191.79L89.86,225.45L90,217.97L90.4,217.97L90.53,184.31L91.33,225.45L91.46,217.97L91.86,217.97L91.99,184.31L92.79,225.45L92.93,217.97L93.33,217.97L93.46,184.31L94.26,225.45L94.39,217.97L94.79,217.97L94.92,184.31L95.72,225.45L95.86,217.97L96.26,217.97L96.39,158.13L97.19,229.19L97.32,221.71L97.72,221.71L97.85,191.79L98.65,229.19L98.78,221.71L99.18,221.71L99.32,191.79L100.12,229.19L100.25,221.71L100.65,221.71L100.78,191.79L101.58,229.19L101.71,221.71L102.11,221.71L102.25,191.79L103.05,229.19L103.18,221.71L103.58,221.71L103.71,191.79L104.51,229.19L104.64,221.71L105.04,221.71L105.18,191.79L105.97,225.45L106.11,217.97L106.51,217.97L106.64,184.31L107.44,225.45L107.57,217.97L107.97,217.97L108.1,184.31L108.9,225.45L109.04,217.97L109.44,217.97L109.57,184.31L110.37,225.45L110.5,217.97L110.9,217.97L111.03,184.31L111.83,225.45L111.96,217.97L112.36,217.97L112.5,158.13L113.3,229.19L113.43,221.71L113.83,221.71L113.96,191.79L114.76,229.19L114.89,221.71L115.29,221.71L115.43,191.79L116.23,229.19L116.36,221.71L116.76,221.71L116.89,191.79L117.69,229.19L117.82,221.71L118.22,221.71L118.36,191.79L119.15,229.19L119.29,221.71L119.69,221.71L119.82,191.79L120.62,229.19L120.75,221.71L121.15,221.71L121.28,191.79L122.08,225.45L122.22,217.97L122.62,217.97L122.75,184.31L123.55,225.45L123.68,217.97L124.08,217.97L124.21,184.31L125.01,225.45L125.15,217.97L125.54,217.97L125.68,184.31L126.48,225.45L126.61,217.97L127.01,217.97L127.14,184.31L127.94,225.45L128.07,217.97L128.47,217.97L128.61,158.13L129.41,229.19L129.54,221.71L129.94,221.71L130.07,191.79L130.87,229.19L131,221.71L131.4,221.71L131.54,191.79L132.33,229.19L132.47,221.71L132.87,221.71L133,191.79" style="vector-effect: non-scaling-stroke; fill: none; stroke: rgb(0, 0, 0); stroke-opacity: 1; stroke-width: 2px; opacity: 1;"/></g><g class="points"/><g class="text"/></g><g class="trace scatter trace608cb1" style="stroke-miterlimit: 2; opacity: 1;"><g class="fills"/><g class="errorbars"/><g class="lines"><path class="js-line" d="M0,304L1.46,266.6L1.6,274.08L2.26,255.38L2.53,262.86L2.66,270.34L3.33,251.64L3.46,266.6L4.39,247.9L4.53,262.86L4.93,240.42L5.19,255.38L5.33,262.86L5.99,244.16L6.12,259.12L6.52,244.16L6.79,251.64L6.92,259.12L7.06,236.68L7.59,244.16L7.72,259.12L8.65,240.42L8.79,255.38L9.19,232.94L9.45,247.9L9.59,255.38L10.25,225.45L10.38,255.38L10.78,240.42L11.05,247.9L11.18,255.38L11.32,232.94L11.85,240.42L11.98,255.38L12.38,229.19L12.65,244.16L12.78,251.64L13.45,229.19L13.58,251.64L13.98,236.68L14.25,244.16L14.38,251.64L14.51,221.71L15.04,236.68L15.18,251.64L15.58,229.19L15.84,244.16L15.98,251.64L16.64,225.45L16.77,247.9L17.17,232.94L17.44,240.42L17.57,247.9L17.71,225.45L18.24,232.94L18.37,247.9L18.77,217.97L19.04,240.42L19.17,247.9L19.84,225.45L19.97,247.9L20.37,232.94L20.64,240.42L20.77,247.9L20.9,210.49L21.43,232.94L21.57,247.9L21.97,225.45L22.23,240.42L22.37,247.9L23.03,217.97L23.17,247.9L23.56,232.94L23.83,240.42L23.96,247.9L24.1,225.45L24.63,232.94L24.76,247.9L25.16,214.23L25.43,236.68L25.56,244.16L26.23,221.71L26.36,244.16L26.76,229.19L27.03,236.68L27.16,244.16L27.29,214.23L27.82,229.19L27.96,244.16L28.36,221.71L28.62,236.68L28.76,244.16L29.42,206.75L29.56,244.16L29.95,229.19L30.22,236.68L30.35,244.16L30.49,221.71L31.02,229.19L31.15,244.16L31.55,214.23L31.82,236.68L31.95,244.16L32.62,221.71L32.75,244.16L33.15,229.19L33.42,236.68L33.55,244.16L33.68,210.49L34.22,225.45L34.35,240.42L34.75,217.97L35.01,232.94L35.15,240.42L35.81,210.49L35.95,240.42L36.35,225.45L36.61,232.94L36.74,240.42L36.88,217.97L37.41,225.45L37.54,240.42L37.94,203.01L38.08,240.42L38.48,225.45L38.74,232.94L38.87,240.42L39.01,217.97L39.54,225.45L39.67,240.42L40.07,210.49L40.34,232.94L40.47,240.42L41.14,217.97L41.27,240.42L41.67,225.45L41.94,232.94L42.07,240.42L42.2,195.53L42.74,225.45L42.87,240.42L43.27,217.97L43.53,232.94L43.67,240.42L44.33,210.49L44.47,240.42L44.87,225.45L45.13,232.94L45.27,240.42L45.4,217.97L45.93,225.45L46.06,240.42L46.46,203.01L46.6,240.42L47,225.45L47.26,232.94L47.4,240.42L47.53,217.97L48.06,225.45L48.19,240.42L48.59,210.49L48.86,232.94L48.99,240.42L49.66,217.97L49.79,240.42L50.19,225.45L50.46,232.94L50.59,240.42L50.72,199.27L51.26,221.71L51.39,236.68L51.79,214.23L52.06,229.19L52.19,236.68L52.85,206.75L52.99,236.68L53.39,221.71L53.65,229.19L53.79,236.68L53.92,214.23L54.45,221.71L54.58,236.68L54.98,199.27L55.12,236.68L55.52,221.71L55.78,229.19L55.92,236.68L56.05,214.23L56.58,221.71L56.71,236.68L57.11,206.75L57.38,229.19L57.51,236.68L58.18,214.23L58.31,236.68L58.71,221.71L58.98,229.19L59.11,236.68L59.24,191.79L59.78,221.71L59.91,236.68L60.31,214.23L60.58,229.19L60.71,236.68L61.37,206.75L61.51,236.68L61.91,221.71L62.17,229.19L62.31,236.68L62.44,214.23L62.97,221.71L63.11,236.68L63.5,199.27L63.64,236.68L64.04,221.71L64.3,229.19L64.44,236.68L64.57,214.23L65.1,221.71L65.24,236.68L65.63,206.75L65.9,229.19L66.03,236.68L66.7,214.23L66.83,236.68L67.23,221.71L67.5,229.19L67.63,236.68L67.76,195.53L68.3,217.97L68.43,232.94L68.83,210.49L69.1,225.45L69.23,232.94L69.89,203.01L70.03,232.94L70.43,217.97L70.69,225.45L70.83,232.94L70.96,210.49L71.49,217.97L71.63,232.94L72.03,195.53L72.16,232.94L72.56,217.97L72.82,225.45L72.96,232.94L73.09,210.49L73.62,217.97L73.76,232.94L74.16,203.01L74.42,225.45L74.55,232.94L75.22,210.49L75.35,232.94L75.75,217.97L76.02,225.45L76.15,232.94L76.29,188.05L76.82,217.97L76.95,232.94L77.35,210.49L77.62,225.45L77.75,232.94L78.42,203.01L78.55,232.94L78.95,217.97L79.21,225.45L79.35,232.94L79.48,210.49L80.01,217.97L80.15,232.94L80.55,195.53L80.68,232.94L81.08,217.97L81.34,225.45L81.48,232.94L81.61,210.49L82.14,217.97L82.28,232.94L82.68,203.01L82.94,225.45L83.08,232.94L83.74,210.49L83.87,232.94L84.27,217.97L84.54,225.45L84.67,232.94L84.81,180.57L85.34,217.97L85.47,232.94L85.87,210.49L86.14,225.45L86.27,232.94L86.94,203.01L87.07,232.94L87.47,217.97L87.73,225.45L87.87,232.94L88,210.49L88.53,217.97L88.67,232.94L89.07,195.53L89.2,232.94L89.6,217.97L89.86,225.45L90,232.94L90.13,210.49L90.66,217.97L90.8,232.94L91.2,203.01L91.46,225.45L91.6,232.94L92.26,210.49L92.39,232.94L92.79,217.97L93.06,225.45L93.19,232.94L93.33,188.05L93.86,217.97L93.99,232.94L94.39,210.49L94.66,225.45L94.79,232.94L95.46,203.01L95.59,232.94L95.99,217.97L96.26,225.45L96.39,232.94L96.52,210.49L97.05,217.97L97.19,232.94L97.59,195.53L97.72,232.94L98.12,217.97L98.39,225.45L98.52,232.94L98.65,210.49L99.18,217.97L99.32,232.94L99.72,203.01L99.98,225.45L100.12,232.94L100.78,210.49L100.91,232.94L101.31,217.97L101.58,225.45L101.71,232.94L101.85,184.31L102.38,214.23L102.51,229.19L102.91,206.75L103.18,221.71L103.31,229.19L103.98,199.27L104.11,229.19L104.51,214.23L104.78,221.71L104.91,229.19L105.04,206.75L105.57,214.23L105.71,229.19L106.11,191.79L106.24,229.19L106.64,214.23L106.91,221.71L107.04,229.19L107.17,206.75L107.7,214.23L107.84,229.19L108.24,199.27L108.5,221.71L108.64,229.19L109.3,206.75L109.44,229.19L109.83,214.23L110.1,221.71L110.23,229.19L110.37,184.31L110.9,214.23L111.03,229.19L111.43,206.75L111.7,221.71L111.83,229.19L112.5,199.27L112.63,229.19L113.03,214.23L113.3,221.71L113.43,229.19L113.56,206.75L114.1,214.23L114.23,229.19L114.63,191.79L114.76,229.19L115.16,214.23L115.43,221.71L115.56,229.19L115.69,206.75L116.23,214.23L116.36,229.19L116.76,199.27L117.02,221.71L117.16,229.19L117.82,206.75L117.96,229.19L118.36,214.23L118.62,221.71L118.75,229.19L118.89,176.83L119.42,214.23L119.55,229.19L119.95,206.75L120.22,221.71L120.35,229.19L121.02,199.27L121.15,229.19L121.55,214.23L121.82,221.71L121.95,229.19L122.08,206.75L122.62,214.23L122.75,229.19L123.15,191.79L123.28,229.19L123.68,214.23L123.95,221.71L124.08,229.19L124.21,206.75L124.75,214.23L124.88,229.19L125.28,199.27L125.54,221.71L125.68,229.19L126.34,206.75L126.48,229.19L126.88,214.23L127.14,221.71L127.28,229.19L127.41,184.31L127.94,214.23L128.07,229.19L128.47,206.75L128.74,221.71L128.87,229.19L129.54,199.27L129.67,229.19L130.07,214.23L130.34,221.71L130.47,229.19L130.6,206.75L131.14,214.23L131.27,229.19L131.67,191.79L131.8,229.19L132.2,214.23L132.47,221.71L132.6,229.19L132.73,206.75L133,221.71" style="vector-effect: non-scaling-stroke; fill: none; stroke: rgb(255, 255, 0); stroke-opacity: 1; stroke-width: 2px; opacity: 1;"/></g><g class="points"/><g class="text"/></g></g></g><g class="overplot"/><path class="xlines-above crisp" d="M0,0" style="fill: none;"/><path class="ylines-above crisp" d="M0,0" style="fill: none;"/><g class="overlines-above"/><g class="xaxislayer-above"><g class="xtick"><text text-anchor="middle" x="0" y="433" transform="translate(487,0)" style="font-family: 'Open Sans', verdana, arial, sans-serif; font-size: 12px; fill: rgb(42, 63, 95); fill-opacity: 1; white-space: pre; opacity: 1;">0</text></g><g class="xtick"><text text-anchor="middle" x="0" y="433" style="font-family: 'Open Sans', verdana, arial, sans-serif; font-size: 12px; fill: rgb(42, 63, 95); fill-opacity: 1; white-space: pre; opacity: 1;" transform="translate(513.63,0)">200</text></g><g class="xtick"><text text-anchor="middle" x="0" y="433" style="font-family: 'Open Sans', verdana, arial, sans-serif; font-size: 12px; fill: rgb(42, 63, 95); fill-opacity: 1; white-space: pre; opacity: 1;" transform="translate(540.25,0)">400</text></g><g class="xtick"><text text-anchor="middle" x="0" y="433" style="font-family: 'Open Sans', verdana, arial, sans-serif; font-size: 12px; fill: rgb(42, 63, 95); fill-opacity: 1; white-space: pre; opacity: 1;" transform="translate(566.88,0)">600</text></g><g class="xtick"><text text-anchor="middle" x="0" y="433" style="font-family: 'Open Sans', verdana, arial, sans-serif; font-size: 12px; fill: rgb(42, 63, 95); fill-opacity: 1; white-space: pre; opacity: 1;" transform="translate(593.51,0)">800</text></g></g><g class="yaxislayer-above"><g class="ytick"><text text-anchor="end" x="486" y="4.199999999999999" transform="translate(0,407.74)" style="font-family: 'Open Sans', verdana, arial, sans-serif; font-size: 12px; fill: rgb(42, 63, 95); fill-opacity: 1; white-space: pre; opacity: 1;">0</text></g><g class="ytick"><text text-anchor="end" x="486" y="4.199999999999999" style="font-family: 'Open Sans', verdana, arial, sans-serif; font-size: 12px; fill: rgb(42, 63, 95); fill-opacity: 1; white-space: pre; opacity: 1;" transform="translate(0,370.34)">10</text></g><g class="ytick"><text text-anchor="end" x="486" y="4.199999999999999" style="font-family: 'Open Sans', verdana, arial, sans-serif; font-size: 12px; fill: rgb(42, 63, 95); fill-opacity: 1; white-space: pre; opacity: 1;" transform="translate(0,332.94)">20</text></g><g class="ytick"><text text-anchor="end" x="486" y="4.199999999999999" style="font-family: 'Open Sans', verdana, arial, sans-serif; font-size: 12px; fill: rgb(42, 63, 95); fill-opacity: 1; white-space: pre; opacity: 1;" transform="translate(0,295.53)">30</text></g><g class="ytick"><text text-anchor="end" x="486" y="4.199999999999999" style="font-family: 'Open Sans', verdana, arial, sans-serif; font-size: 12px; fill: rgb(42, 63, 95); fill-opacity: 1; white-space: pre; opacity: 1;" transform="translate(0,258.13)">40</text></g><g class="ytick"><text text-anchor="end" x="486" y="4.199999999999999" style="font-family: 'Open Sans', verdana, arial, sans-serif; font-size: 12px; fill: rgb(42, 63, 95); fill-opacity: 1; white-space: pre; opacity: 1;" transform="translate(0,220.73000000000002)">50</text></g><g class="ytick"><text text-anchor="end" x="486" y="4.199999999999999" style="font-family: 'Open Sans', verdana, arial, sans-serif; font-size: 12px; fill: rgb(42, 63, 95); fill-opacity: 1; white-space: pre; opacity: 1;" transform="translate(0,183.32)">60</text></g><g class="ytick"><text text-anchor="end" x="486" y="4.199999999999999" style="font-family: 'Open Sans', verdana, arial, sans-serif; font-size: 12px; fill: rgb(42, 63, 95); fill-opacity: 1; white-space: pre; opacity: 1;" transform="translate(0,145.92000000000002)">70</text></g><g class="ytick"><text text-anchor="end" x="486" y="4.199999999999999" style="font-family: 'Open Sans', verdana, arial, sans-serif; font-size: 12px; fill: rgb(42, 63, 95); fill-opacity: 1; white-space: pre; opacity: 1;" transform="translate(0,108.52)">80</text></g></g><g class="overaxes-above"/></g></g><g class="polarlayer"/><g class="smithlayer"/><g class="ternarylayer"/><g class="geolayer"/><g class="funnelarealayer"/><g class="pielayer"/><g class="iciclelayer"/><g class="treemaplayer"/><g class="sunburstlayer"/><g class="glimages"/><defs id="topdefs-867c77"><g class="clips"/><clipPath id="legend867c77"><rect width="45" height="105" x="0" y="0"/></clipPath></defs><g class="layer-above"><g class="imagelayer"/><g class="shapelayer"/></g><g class="infolayer"><g class="legend" pointer-events="all" transform="translate(622.66,100)"><rect class="bg" shape-rendering="crispEdges" style="stroke: rgb(68, 68, 68); stroke-opacity: 1; fill: rgb(255, 255, 255); fill-opacity: 1; stroke-width: 0px;" width="45" height="105" x="0" y="0"/><g class="scrollbox" transform="" clip-path="url(#legend867c77)"><g class="groups"><g class="traces" transform="translate(0,14.5)" style="opacity: 1;"><text class="legendtext" text-anchor="start" x="40" y="4.680000000000001" style="font-family: 'Open Sans', verdana, arial, sans-serif; font-size: 12px; fill: rgb(42, 63, 95); fill-opacity: 1; white-space: pre;">AVL</text><g class="layers" style="opacity: 1;"><g class="legendfill"/><g class="legendlines"><path class="js-line" d="M5,0h30" style="fill: none; stroke: rgb(128, 0, 128); stroke-opacity: 1; stroke-width: 2px;"/></g><g class="legendsymbols"><g class="legendpoints"/></g></g><rect class="legendtoggle" x="0" y="-9.5" width="40" height="19" style="fill: rgb(0, 0, 0); fill-opacity: 0;"/></g><g class="traces" transform="translate(0,33.5)" style="opacity: 1;"><text class="legendtext" text-anchor="start" x="40" y="4.680000000000001" style="font-family: 'Open Sans', verdana, arial, sans-serif; font-size: 12px; fill: rgb(42, 63, 95); fill-opacity: 1; white-space: pre;">B1</text><g class="layers" style="opacity: 1;"><g class="legendfill"/><g class="legendlines"><path class="js-line" d="M5,0h30" style="fill: none; stroke: rgb(255, 0, 0); stroke-opacity: 1; stroke-width: 2px;"/></g><g class="legendsymbols"><g class="legendpoints"/></g></g><rect class="legendtoggle" x="0" y="-9.5" width="40" height="19" style="fill: rgb(0, 0, 0); fill-opacity: 0;"/></g><g class="traces" transform="translate(0,52.5)" style="opacity: 1;"><text class="legendtext" text-anchor="start" x="40" y="4.680000000000001" style="font-family: 'Open Sans', verdana, arial, sans-serif; font-size: 12px; fill: rgb(42, 63, 95); fill-opacity: 1; white-space: pre;">B5</text><g class="layers" style="opacity: 1;"><g class="legendfill"/><g class="legendlines"><path class="js-line" d="M5,0h30" style="fill: none; stroke: rgb(0, 128, 0); stroke-opacity: 1; stroke-width: 2px;"/></g><g class="legendsymbols"><g class="legendpoints"/></g></g><rect class="legendtoggle" x="0" y="-9.5" width="40" height="19" style="fill: rgb(0, 0, 0); fill-opacity: 0;"/></g><g class="traces" transform="translate(0,71.5)" style="opacity: 1;"><text class="legendtext" text-anchor="start" x="40" y="4.680000000000001" style="font-family: 'Open Sans', verdana, arial, sans-serif; font-size: 12px; fill: rgb(42, 63, 95); fill-opacity: 1; white-space: pre;">B10</text><g class="layers" style="opacity: 1;"><g class="legendfill"/><g class="legendlines"><path class="js-line" d="M5,0h30" style="fill: none; stroke: rgb(0, 0, 0); stroke-opacity: 1; stroke-width: 2px;"/></g><g class="legendsymbols"><g class="legendpoints"/></g></g><rect class="legendtoggle" x="0" y="-9.5" width="40" height="19" style="fill: rgb(0, 0, 0); fill-opacity: 0;"/></g><g class="traces" transform="translate(0,90.5)" style="opacity: 1;"><text class="legendtext" text-anchor="start" x="40" y="4.680000000000001" style="font-family: 'Open Sans', verdana, arial, sans-serif; font-size: 12px; fill: rgb(42, 63, 95); fill-opacity: 1; white-space: pre;">Rubro Negra</text><g class="layers" style="opacity: 1;"><g class="legendfill"/><g class="legendlines"><path class="js-line" d="M5,0h30" style="fill: none; stroke: rgb(255, 255, 0); stroke-opacity: 1; stroke-width: 2px;"/></g><g class="legendsymbols"><g class="legendpoints"/></g></g><rect class="legendtoggle" x="0" y="-9.5" width="40" height="19" style="fill: rgb(0, 0, 0); fill-opacity: 0;"/></g></g></g><rect class="scrollbar" rx="20" ry="3" width="0" height="0" style="fill: rgb(128, 139, 164); fill-opacity: 1;" x="0" y="0"/></g><g class="g-gtitle"/><g class="g-xtitle"><text class="xtitle" x="553.5" y="444.8" text-anchor="middle" style="font-family: 'Open Sans', verdana, arial, sans-serif; font-size: 14px; fill: rgb(42, 63, 95); opacity: 1; font-weight: normal; white-space: pre;">chaves</text></g><g class="g-ytitle" transform="translate(37.7998046875,0)"><text class="ytitle" transform="rotate(-90,-24.80000000000001,260)" x="-24.80000000000001" y="260" text-anchor="middle" style="font-family: 'Open Sans', verdana, arial, sans-serif; font-size: 14px; fill: rgb(42, 63, 95); opacity: 1; font-weight: normal; white-space: pre;">operações</text></g></g></svg>